<?xml version="1.0" encoding="UTF-8" standalone="no"?>
<!DOCTYPE svg PUBLIC "-//W3C//DTD SVG 1.1//EN" "http://www.w3.org/Graphics/SVG/1.1/DTD/svg11.dtd">
<svg width="100%" height="100%" viewBox="0 0 886 277" version="1.1" xmlns="http://www.w3.org/2000/svg" xmlns:xlink="http://www.w3.org/1999/xlink" xml:space="preserve" xmlns:serif="http://www.serif.com/" style="fill-rule:evenodd;clip-rule:evenodd;stroke-linejoin:round;stroke-miterlimit:2;">
    <g id="Artboard1" transform="matrix(1,0,0,1,-1313.31,-1196.25)">
        <rect x="1313.31" y="1196.25" width="885.557" height="276.581" style="fill:none;"/>
        <g transform="matrix(0.820647,0,0,0.683987,747.554,386.486)">
            <text x="714.486px" y="1391.52px" style="font-family:'HelveticaNeue-BoldItalic', 'Helvetica Neue';font-weight:700;font-style:italic;font-size:332.885px;fill:white;">s<tspan x="883.924px " y="1391.52px ">g</tspan></text>
            <path d="M831.661,1269.68L875.602,1269.68C875.824,1258.59 874.048,1249.49 870.276,1242.39C866.503,1235.29 861.343,1229.68 854.797,1225.58C848.25,1221.47 840.649,1218.64 831.994,1217.09C823.339,1215.54 814.351,1214.76 805.03,1214.76C796.819,1214.76 788.22,1215.7 779.232,1217.59C770.244,1219.48 761.977,1222.58 754.432,1226.91C746.886,1231.24 740.728,1236.84 735.957,1243.72C731.185,1250.6 728.8,1259.14 728.8,1269.35C728.8,1276.23 729.632,1282 731.296,1286.66C732.961,1291.32 735.402,1295.32 738.62,1298.65C741.838,1301.98 745.721,1304.75 750.271,1306.97C754.82,1309.19 760.091,1311.3 766.083,1313.29L802.367,1324.94C807.471,1326.72 811.577,1328.83 814.684,1331.27C817.791,1333.71 819.344,1337.93 819.344,1343.92C819.344,1347.91 818.457,1351.19 816.681,1353.74C814.906,1356.29 812.576,1358.4 809.691,1360.06C806.806,1361.73 803.588,1362.89 800.037,1363.56C796.486,1364.22 792.935,1364.56 789.385,1364.56C785.39,1364.56 781.34,1364.06 777.234,1363.06C773.129,1362.06 769.467,1360.62 766.249,1358.73C763.031,1356.85 760.424,1354.46 758.426,1351.58C756.429,1348.69 755.43,1345.25 755.43,1341.26L755.43,1335.6L711.822,1335.6L711.822,1342.59C711.822,1352.8 714.042,1361.28 718.48,1368.05C722.919,1374.82 728.633,1380.26 735.624,1384.36C742.614,1388.47 750.437,1391.41 759.092,1393.18C767.747,1394.96 776.291,1395.85 784.724,1395.85C794.711,1395.85 804.586,1394.85 814.351,1392.85C824.116,1390.86 832.882,1387.53 840.649,1382.87C848.416,1378.2 854.686,1372.16 859.457,1364.72C864.228,1357.29 866.614,1348.25 866.614,1337.59C866.614,1330.49 865.449,1324.28 863.119,1318.95C860.789,1313.63 857.571,1309.02 853.465,1305.14C849.359,1301.25 844.588,1297.98 839.151,1295.32C833.714,1292.65 827.777,1290.32 821.342,1288.33L797.707,1280.67C789.718,1278.23 784.114,1275.68 780.896,1273.01C777.678,1270.35 776.069,1267.13 776.069,1263.36C776.069,1257.15 778.788,1252.76 784.225,1250.21C789.662,1247.66 796.597,1246.38 805.03,1246.38C814.351,1246.38 821.064,1248.44 825.17,1252.54C829.275,1256.65 831.439,1262.36 831.661,1269.68ZM838.171,1260.55C836.751,1254.47 834.006,1249.48 830.046,1245.52C824.92,1240.4 816.668,1237.25 805.03,1237.25C795.466,1237.25 787.616,1238.81 781.45,1241.7C772.597,1245.86 768.453,1253.24 768.453,1263.36C768.453,1269.98 770.928,1275.87 776.572,1280.54C780.265,1283.59 786.631,1286.71 795.792,1289.51C795.771,1289.51 819.356,1297.15 819.356,1297.15C819.382,1297.16 819.408,1297.16 819.434,1297.17C825.519,1299.06 831.132,1301.26 836.273,1303.78C841.009,1306.1 845.173,1308.93 848.75,1312.31C851.988,1315.38 854.537,1319 856.375,1323.2C858.172,1327.31 858.998,1332.12 858.998,1337.59C858.998,1346.04 857.207,1353.25 853.423,1359.15C849.324,1365.53 843.914,1370.69 837.243,1374.69C830.105,1378.98 822.044,1382.01 813.071,1383.85C803.728,1385.76 794.279,1386.71 784.724,1386.71C776.713,1386.71 768.597,1385.87 760.376,1384.18C752.484,1382.56 745.346,1379.9 738.972,1376.16C733.065,1372.69 728.216,1368.12 724.466,1362.4C721.337,1357.63 719.744,1351.72 719.483,1344.73L747.991,1344.73C748.486,1349.53 750.032,1353.75 752.568,1357.41C755.215,1361.24 758.642,1364.44 762.906,1366.94C766.662,1369.14 770.929,1370.85 775.721,1372.01C780.338,1373.14 784.893,1373.69 789.385,1373.69C793.327,1373.69 797.27,1373.33 801.213,1372.59C805.547,1371.77 809.47,1370.33 812.991,1368.3C816.94,1366.02 820.098,1363.09 822.528,1359.59C825.374,1355.5 826.96,1350.32 826.96,1343.92C826.96,1334.17 823.912,1327.6 818.856,1323.62C815.226,1320.77 810.452,1318.24 804.488,1316.17C804.437,1316.15 804.387,1316.13 804.336,1316.12L768.089,1304.48C762.426,1302.59 757.441,1300.6 753.139,1298.5C749.417,1296.69 746.225,1294.45 743.593,1291.73C741.266,1289.32 739.5,1286.43 738.297,1283.06C736.98,1279.38 736.416,1274.79 736.416,1269.35C736.416,1261.49 738.136,1254.86 741.811,1249.56C745.912,1243.65 751.23,1238.87 757.716,1235.15C764.661,1231.17 772.272,1228.33 780.544,1226.59C789.075,1224.8 797.237,1223.9 805.03,1223.9C813.961,1223.9 822.574,1224.64 830.867,1226.13C838.607,1227.52 845.414,1230 851.269,1233.68C856.584,1237.01 860.791,1241.53 863.853,1247.3C865.833,1251.03 867.058,1255.45 867.627,1260.55L838.171,1260.55Z" style="fill:white;"/>
            <path d="M1046.04,1382.53L1080.33,1219.42L1035.05,1219.42L1029.73,1245.72L1029.06,1245.72C1024.18,1234.4 1017.19,1226.41 1008.09,1221.75C998.991,1217.09 988.45,1214.76 976.466,1214.76C962.707,1214.76 950.446,1217.81 939.682,1223.91C928.919,1230.02 919.82,1238.01 912.386,1247.88C904.951,1257.76 899.292,1268.85 895.409,1281.17C891.525,1293.49 889.583,1305.97 889.583,1318.62C889.583,1329.27 891.137,1338.87 894.243,1347.41C897.35,1355.96 901.733,1363.34 907.392,1369.55C913.051,1375.76 919.987,1380.54 928.198,1383.86C936.409,1387.19 945.619,1388.86 955.827,1388.86C975.135,1388.86 990.891,1380.76 1003.1,1364.56L1003.76,1365.22C1001.32,1373.43 998.88,1381.2 996.439,1388.53C993.998,1395.85 991.002,1402.17 987.451,1407.5C983.901,1412.83 979.628,1417.04 974.635,1420.15C969.642,1423.26 963.373,1424.81 955.827,1424.81C952.055,1424.81 948.282,1424.37 944.509,1423.48C940.736,1422.59 937.352,1421.15 934.356,1419.15C931.36,1417.15 928.974,1414.6 927.199,1411.49C925.424,1408.39 924.647,1404.61 924.869,1400.18L877.932,1400.18C877.932,1410.61 880.096,1419.37 884.423,1426.47C888.751,1433.58 894.41,1439.35 901.4,1443.78C908.391,1448.22 916.269,1451.44 925.035,1453.44C933.801,1455.43 942.512,1456.43 951.167,1456.43C965.37,1456.43 977.742,1454.99 988.283,1452.11C998.825,1449.22 1007.92,1444.78 1015.58,1438.79C1023.24,1432.8 1029.51,1425.14 1034.39,1415.82C1039.27,1406.5 1043.15,1395.4 1046.04,1382.53ZM1038.67,1380.23C1036,1392.1 1032.45,1402.36 1027.94,1410.96C1023.65,1419.15 1018.14,1425.87 1011.42,1431.14C1004.46,1436.58 996.173,1440.57 986.59,1443.2C976.53,1445.95 964.721,1447.3 951.167,1447.3C942.982,1447.3 934.746,1446.35 926.456,1444.46C918.487,1442.64 911.318,1439.74 904.963,1435.71C899.045,1431.95 894.235,1427.09 890.571,1421.08C888.484,1417.66 887.078,1413.73 886.297,1409.31C886.297,1409.31 918.056,1409.31 918.056,1409.31C918.681,1411.99 919.644,1414.43 920.918,1416.66C923.34,1420.9 926.57,1424.41 930.657,1427.14C934.314,1429.58 938.438,1431.36 943.043,1432.44C947.305,1433.45 951.566,1433.95 955.827,1433.95C964.79,1433.95 972.21,1431.95 978.141,1428.26C984.085,1424.56 989.172,1419.55 993.399,1413.21C997.385,1407.23 1000.77,1400.14 1003.51,1391.92C1005.99,1384.49 1008.46,1376.62 1010.94,1368.29C1012.01,1364.68 1011.09,1360.66 1008.64,1358.2L1007.97,1357.54C1004.83,1354.4 1000.19,1354.79 997.447,1358.43C986.708,1372.68 972.814,1379.72 955.827,1379.72C946.521,1379.72 938.121,1378.24 930.636,1375.21C923.5,1372.32 917.452,1368.21 912.534,1362.81C907.665,1357.46 903.897,1351.11 901.224,1343.76C898.512,1336.3 897.199,1327.92 897.199,1318.62C897.199,1307.06 898.983,1295.66 902.532,1284.4C906.078,1273.15 911.248,1263.02 918.038,1254.01C924.816,1245 933.123,1237.74 942.936,1232.17C952.744,1226.61 963.928,1223.9 976.466,1223.9C987.313,1223.9 996.865,1225.93 1005.1,1230.15C1012.58,1233.99 1018.28,1240.61 1022.3,1249.92C1023.61,1252.95 1026.21,1254.86 1029.06,1254.86L1029.73,1254.86C1033.24,1254.86 1036.3,1251.97 1037.13,1247.88L1041.04,1228.56C1041.04,1228.56 1070.55,1228.56 1070.55,1228.56C1070.55,1228.56 1038.67,1380.23 1038.67,1380.23L1038.67,1380.23ZM985.121,1241.24C975.657,1241.24 967.394,1243.83 960.296,1248.82C953.414,1253.66 947.688,1259.73 943.099,1267C938.599,1274.12 935.159,1281.99 932.784,1290.62C930.399,1299.28 929.237,1307.51 929.237,1315.29C929.237,1321.38 929.977,1327.14 931.434,1332.57C932.987,1338.36 935.459,1343.51 938.848,1348.03C942.244,1352.56 946.472,1356.13 951.566,1358.68C956.382,1361.09 962.121,1362.38 968.81,1362.38C978.63,1362.38 987.205,1359.9 994.571,1355.12C1001.87,1350.38 1007.87,1344.35 1012.6,1337.05C1017.25,1329.89 1020.77,1321.92 1023.15,1313.13C1025.53,1304.39 1026.69,1295.9 1026.69,1287.66C1026.69,1274.21 1023.13,1263.21 1016.27,1254.56C1009.49,1246.03 999.212,1241.24 985.121,1241.24ZM985.121,1250.38C996.661,1250.38 1005.21,1253.87 1010.75,1260.86C1016.3,1267.85 1019.08,1276.79 1019.08,1287.66C1019.08,1294.98 1018.02,1302.53 1015.91,1310.3C1013.81,1318.06 1010.7,1325.11 1006.59,1331.43C1002.49,1337.76 997.271,1342.98 990.947,1347.08C984.622,1351.19 977.243,1353.24 968.81,1353.24C963.262,1353.24 958.49,1352.24 954.496,1350.24C950.501,1348.25 947.172,1345.47 944.509,1341.92C941.846,1338.37 939.904,1334.32 938.684,1329.77C937.463,1325.22 936.853,1320.39 936.853,1315.29C936.853,1308.41 937.907,1301.14 940.015,1293.49C942.123,1285.83 945.175,1278.84 949.17,1272.51C953.164,1266.19 958.157,1260.92 964.149,1256.7C970.141,1252.49 977.132,1250.38 985.121,1250.38Z" style="fill:white;"/>
        </g>
        <g transform="matrix(0.820647,0,0,0.685545,1083.64,491.866)">
            <text x="714.486px" y="1391.52px" style="font-family:'HelveticaNeue-BoldItalic', 'Helvetica Neue';font-weight:700;font-style:italic;font-size:332.885px;fill:white;">m<tspan x="1013.08px 1213.15px " y="1391.52px 1391.52px ">nt</tspan></text>
            <path d="M746.442,1219.42L710.824,1391.52L757.761,1391.52L777.068,1299.31C778.178,1293.99 779.953,1288.55 782.394,1283C784.835,1277.45 787.887,1272.4 791.548,1267.85C795.21,1263.31 799.538,1259.53 804.531,1256.54C809.524,1253.54 815.128,1252.04 821.342,1252.04C827.334,1252.04 832.271,1253.82 836.155,1257.37C840.039,1260.92 841.981,1265.25 841.981,1270.35C841.981,1274.12 841.537,1278.23 840.649,1282.67L818.013,1391.52L865.615,1391.52L884.923,1299.31C886.032,1293.99 887.808,1288.55 890.249,1283C892.69,1277.45 895.741,1272.4 899.403,1267.85C903.065,1263.31 907.392,1259.53 912.386,1256.54C917.379,1253.54 922.983,1252.04 929.196,1252.04C935.188,1252.04 940.126,1253.82 944.01,1257.37C947.893,1260.92 949.835,1265.25 949.835,1270.35C949.835,1274.12 949.391,1278.23 948.504,1282.67L925.868,1391.52L973.137,1391.52L994.442,1290.32C995.551,1285.22 996.661,1279.95 997.771,1274.51C998.88,1269.08 999.435,1263.69 999.435,1258.37C999.435,1251.04 997.993,1244.61 995.108,1239.06C992.223,1233.51 988.339,1228.96 983.457,1225.41C978.574,1221.86 972.971,1219.2 966.646,1217.42C960.321,1215.65 953.83,1214.76 947.172,1214.76C941.624,1214.76 936.021,1215.48 930.361,1216.92C924.702,1218.37 919.321,1220.42 914.217,1223.08C909.112,1225.74 904.341,1228.91 899.903,1232.57C895.464,1236.23 891.802,1240.28 888.917,1244.72C886.92,1234.07 882.149,1226.41 874.603,1221.75C867.058,1217.09 857.959,1214.76 847.307,1214.76C834.657,1214.76 823.228,1217.09 813.02,1221.75C802.811,1226.41 794.156,1233.73 787.054,1243.72L786.389,1243.72L791.715,1219.42L746.442,1219.42ZM752.402,1228.54L781.843,1228.54C781.843,1228.54 779.022,1241.41 779.022,1241.41C778.423,1244.14 778.917,1247.05 780.359,1249.29C781.801,1251.53 784.028,1252.84 786.389,1252.84L787.054,1252.84C789.287,1252.84 791.407,1251.66 792.854,1249.63C799.112,1240.83 806.738,1234.37 815.733,1230.27C825.132,1225.98 835.661,1223.88 847.307,1223.88C856.588,1223.88 864.537,1225.79 871.111,1229.85C876.626,1233.26 880.026,1238.93 881.486,1246.71C882.132,1250.16 884.378,1252.84 887.254,1253.62C890.129,1254.39 893.118,1253.1 894.928,1250.32C897.365,1246.57 900.475,1243.17 904.224,1240.08C908.266,1236.74 912.612,1233.86 917.259,1231.44C921.903,1229.02 926.8,1227.15 931.948,1225.84C937.073,1224.53 942.147,1223.88 947.172,1223.88C953.235,1223.88 959.147,1224.68 964.907,1226.3C970.395,1227.84 975.266,1230.12 979.502,1233.2C983.327,1235.98 986.382,1239.53 988.642,1243.88C990.804,1248.04 991.819,1252.88 991.819,1258.37C991.819,1262.98 991.333,1267.64 990.372,1272.35C989.272,1277.74 988.172,1282.97 987.071,1288.03C987.066,1288.05 987.062,1288.07 987.057,1288.1L967.202,1382.4C967.202,1382.4 935.612,1382.4 935.612,1382.4C935.612,1382.4 955.894,1284.87 955.894,1284.87C955.9,1284.84 955.905,1284.82 955.91,1284.79C956.951,1279.59 957.451,1274.77 957.451,1270.35C957.451,1262.45 954.645,1255.62 948.633,1250.12C943.524,1245.45 937.078,1242.92 929.196,1242.92C921.718,1242.92 914.983,1244.78 908.973,1248.39C903.18,1251.86 898.167,1256.25 893.919,1261.53C889.755,1266.7 886.286,1272.44 883.51,1278.75C880.765,1284.99 878.781,1291.11 877.533,1297.11C877.535,1297.1 859.673,1382.4 859.673,1382.4C859.673,1382.4 827.757,1382.4 827.757,1382.4C827.757,1382.4 848.039,1284.87 848.039,1284.87C848.045,1284.84 848.05,1284.82 848.056,1284.79C849.096,1279.59 849.596,1274.77 849.596,1270.35C849.596,1262.45 846.791,1255.62 840.778,1250.12C835.669,1245.45 829.223,1242.92 821.342,1242.92C813.863,1242.92 807.128,1244.78 801.118,1248.39C795.325,1251.86 790.312,1256.25 786.064,1261.53C781.9,1266.7 778.431,1272.44 775.656,1278.75C772.91,1284.99 770.926,1291.11 769.678,1297.11C769.68,1297.1 751.818,1382.4 751.818,1382.4C751.818,1382.4 720.557,1382.4 720.557,1382.4L752.402,1228.54Z" style="fill:white;"/>
            <path d="M1045.04,1219.42L1009.42,1391.52L1056.36,1391.52L1075.67,1299.98C1077,1293.99 1078.94,1288.1 1081.49,1282.33C1084.04,1276.56 1087.26,1271.46 1091.14,1267.02C1095.03,1262.58 1099.69,1258.98 1105.13,1256.2C1110.56,1253.43 1116.83,1252.04 1123.93,1252.04C1129.48,1252.04 1134.64,1253.71 1139.41,1257.04C1144.18,1260.36 1146.57,1264.58 1146.57,1269.68C1146.57,1272.13 1146.18,1275.57 1145.4,1280C1144.63,1284.44 1144.02,1287.99 1143.57,1290.66L1122.6,1391.52L1169.87,1391.52L1191.18,1290.66C1191.4,1289.1 1191.79,1287.05 1192.34,1284.5C1192.9,1281.95 1193.45,1279.23 1194.01,1276.34C1194.56,1273.46 1195.06,1270.63 1195.5,1267.85C1195.95,1265.08 1196.17,1262.81 1196.17,1261.03C1196.17,1230.18 1179.41,1214.76 1145.9,1214.76C1121.05,1214.76 1100.96,1224.3 1085.65,1243.39L1084.99,1243.39L1090.31,1219.42L1045.04,1219.42ZM1051,1228.54L1080.41,1228.54C1080.41,1228.54 1077.63,1241.04 1077.63,1241.04C1077.02,1243.78 1077.51,1246.7 1078.95,1248.94C1080.39,1251.19 1082.62,1252.5 1084.99,1252.5L1085.65,1252.5C1087.73,1252.5 1089.71,1251.49 1091.14,1249.7C1105.05,1232.37 1123.34,1223.88 1145.9,1223.88C1163.17,1223.88 1175.47,1227.85 1182.37,1237.39C1186.64,1243.28 1188.55,1251.21 1188.55,1261.03C1188.55,1262.36 1188.36,1264.06 1188.02,1266.14C1187.6,1268.81 1187.12,1271.53 1186.59,1274.3C1186.05,1277.09 1185.51,1279.73 1184.97,1282.2C1184.39,1284.87 1183.98,1287.06 1183.72,1288.75C1183.73,1288.75 1163.94,1382.4 1163.94,1382.4C1163.94,1382.4 1132.35,1382.4 1132.35,1382.4C1132.35,1382.4 1150.96,1292.86 1150.96,1292.86C1150.99,1292.72 1151.02,1292.58 1151.04,1292.44C1151.48,1289.8 1152.09,1286.28 1152.86,1281.87C1153.78,1276.63 1154.19,1272.57 1154.19,1269.68C1154.19,1261.55 1150.85,1254.46 1143.25,1249.16C1137.3,1245.01 1130.86,1242.92 1123.93,1242.92C1115.7,1242.92 1108.44,1244.6 1102.14,1247.82C1095.81,1251.04 1090.4,1255.26 1085.89,1260.43C1081.41,1265.54 1077.7,1271.42 1074.76,1278.07C1071.93,1284.47 1069.78,1290.99 1068.31,1297.63C1068.3,1297.67 1068.29,1297.71 1068.28,1297.75L1050.43,1382.4C1050.43,1382.4 1019.15,1382.4 1019.15,1382.4L1051,1228.54Z" style="fill:white;"/>
            <path d="M1305.69,1219.42L1316.34,1167.16L1269.07,1167.16L1258.42,1219.42L1228.13,1219.42L1220.8,1251.04L1251.76,1251.04L1232.45,1343.25C1231.79,1346.36 1231.23,1349.3 1230.79,1352.07C1230.35,1354.85 1230.12,1357.35 1230.12,1359.56C1229.9,1366.66 1231.07,1372.43 1233.62,1376.87C1236.17,1381.31 1239.61,1384.81 1243.94,1387.36C1248.27,1389.91 1253.15,1391.69 1258.59,1392.69C1264.02,1393.68 1269.52,1394.18 1275.06,1394.18C1280.17,1394.18 1285.16,1394.02 1290.04,1393.68C1294.93,1393.35 1299.81,1392.96 1304.69,1392.52L1312.68,1356.24C1307.13,1356.9 1301.47,1357.23 1295.7,1357.23C1293.93,1357.23 1292.1,1357.18 1290.21,1357.07C1288.32,1356.96 1286.6,1356.46 1285.05,1355.57C1283.5,1354.68 1282.22,1353.4 1281.22,1351.74C1280.22,1350.08 1279.72,1347.69 1279.72,1344.58C1279.72,1343.92 1279.84,1342.86 1280.06,1341.42C1280.28,1339.98 1280.61,1338.37 1281.06,1336.6L1298.7,1251.04L1332.32,1251.04L1339.64,1219.42L1305.69,1219.42ZM1298.29,1217.26C1297.74,1219.98 1298.26,1222.85 1299.7,1225.05C1301.14,1227.25 1303.35,1228.54 1305.69,1228.54L1329.63,1228.54C1329.63,1228.54 1326.53,1241.93 1326.53,1241.93C1326.53,1241.93 1298.7,1241.93 1298.7,1241.93C1295.2,1241.93 1292.14,1244.79 1291.31,1248.86L1273.7,1334.2C1273.2,1336.24 1272.82,1338.1 1272.57,1339.77C1272.23,1341.96 1272.11,1343.57 1272.11,1344.58C1272.11,1350.04 1273.28,1354.14 1275.04,1357.06C1276.79,1359.99 1279.04,1362.24 1281.77,1363.8C1284.2,1365.19 1286.88,1366 1289.84,1366.17C1291.85,1366.29 1293.81,1366.35 1295.7,1366.35C1298.02,1366.35 1300.33,1366.3 1302.61,1366.2C1302.61,1366.2 1298.71,1383.9 1298.71,1383.9C1295.68,1384.15 1292.64,1384.38 1289.61,1384.58C1284.87,1384.91 1280.02,1385.07 1275.06,1385.07C1269.9,1385.07 1264.8,1384.6 1259.74,1383.67C1255.13,1382.83 1250.98,1381.35 1247.31,1379.18C1244.21,1377.35 1241.72,1374.88 1239.89,1371.7C1238.16,1368.69 1237.59,1364.72 1237.74,1359.9C1237.74,1359.79 1237.74,1359.68 1237.74,1359.56C1237.74,1357.85 1237.93,1355.93 1238.27,1353.79C1238.69,1351.19 1239.21,1348.43 1239.83,1345.52C1239.84,1345.5 1239.84,1345.49 1239.84,1345.47L1259.15,1253.26C1259.72,1250.54 1259.21,1247.65 1257.77,1245.43C1256.32,1243.22 1254.11,1241.93 1251.76,1241.93L1230.82,1241.93C1230.82,1241.93 1233.92,1228.54 1233.92,1228.54C1233.92,1228.54 1258.42,1228.54 1258.42,1228.54C1261.93,1228.54 1264.99,1225.66 1265.82,1221.58L1275.05,1176.27C1275.05,1176.27 1306.64,1176.27 1306.64,1176.27C1306.64,1176.27 1298.29,1217.26 1298.29,1217.26Z" style="fill:white;"/>
        </g>
        <g transform="matrix(1.41628,0,0,1.19092,-5029.97,-3554.48)">
            <path d="M4730.88,4009.6L4740.97,4009.6L4701.52,4199.06L4691.27,4199.06L4730.88,4009.6Z" style="fill:white;"/>
            <path d="M4730.88,4009.6L4740.97,4009.6L4701.52,4199.06L4691.27,4199.06L4730.88,4009.6ZM4734.33,4014.84L4735.33,4014.84C4735.33,4014.84 4698.07,4193.81 4698.07,4193.81C4698.07,4193.81 4696.91,4193.81 4696.91,4193.81L4734.33,4014.84Z" style="fill:white;"/>
        </g>
    </g>
</svg>
