<?xml version="1.0" encoding="UTF-8" standalone="no"?>
<!DOCTYPE svg PUBLIC "-//W3C//DTD SVG 1.1//EN" "http://www.w3.org/Graphics/SVG/1.1/DTD/svg11.dtd">
<svg width="100%" height="100%" viewBox="0 0 886 277" version="1.1" xmlns="http://www.w3.org/2000/svg" xmlns:xlink="http://www.w3.org/1999/xlink" xml:space="preserve" xmlns:serif="http://www.serif.com/" style="fill-rule:evenodd;clip-rule:evenodd;stroke-linejoin:round;stroke-miterlimit:2;">
    <g id="Artboard1" transform="matrix(1,0,0,1,-1313.31,-1196.25)">
        <rect x="1313.31" y="1196.25" width="885.557" height="276.581" style="fill:none;"/>
        <g transform="matrix(0.820647,0,0,0.683987,747.554,386.486)">
            <path d="M831.661,1269.68L875.602,1269.68C875.824,1258.59 874.048,1249.49 870.276,1242.39C866.503,1235.29 861.343,1229.68 854.797,1225.58C848.25,1221.47 840.649,1218.64 831.994,1217.09C823.339,1215.54 814.351,1214.76 805.03,1214.76C796.819,1214.76 788.22,1215.7 779.232,1217.59C770.244,1219.48 761.977,1222.58 754.432,1226.91C746.886,1231.24 740.728,1236.84 735.957,1243.72C731.185,1250.6 728.8,1259.14 728.8,1269.35C728.8,1276.23 729.632,1282 731.296,1286.66C732.961,1291.32 735.402,1295.32 738.62,1298.65C741.838,1301.98 745.721,1304.75 750.271,1306.97C754.82,1309.19 760.091,1311.3 766.083,1313.29L802.367,1324.94C807.471,1326.72 811.577,1328.83 814.684,1331.27C817.791,1333.71 819.344,1337.93 819.344,1343.92C819.344,1347.91 818.457,1351.19 816.681,1353.74C814.906,1356.29 812.576,1358.4 809.691,1360.06C806.806,1361.73 803.588,1362.89 800.037,1363.56C796.486,1364.22 792.935,1364.56 789.385,1364.56C785.39,1364.56 781.34,1364.06 777.234,1363.06C773.129,1362.06 769.467,1360.62 766.249,1358.73C763.031,1356.85 760.424,1354.46 758.426,1351.58C756.429,1348.69 755.43,1345.25 755.43,1341.26L755.43,1335.6L711.822,1335.6L711.822,1342.59C711.822,1352.8 714.042,1361.28 718.48,1368.05C722.919,1374.82 728.633,1380.26 735.624,1384.36C742.614,1388.47 750.437,1391.41 759.092,1393.18C767.747,1394.96 776.291,1395.85 784.724,1395.85C794.711,1395.85 804.586,1394.85 814.351,1392.85C824.116,1390.86 832.882,1387.53 840.649,1382.87C848.416,1378.2 854.686,1372.16 859.457,1364.72C864.228,1357.29 866.614,1348.25 866.614,1337.59C866.614,1330.49 865.449,1324.28 863.119,1318.95C860.789,1313.63 857.571,1309.02 853.465,1305.14C849.359,1301.25 844.588,1297.98 839.151,1295.32C833.714,1292.65 827.777,1290.32 821.342,1288.33L797.707,1280.67C789.718,1278.23 784.114,1275.68 780.896,1273.01C777.678,1270.35 776.069,1267.13 776.069,1263.36C776.069,1257.15 778.788,1252.76 784.225,1250.21C789.662,1247.66 796.597,1246.38 805.03,1246.38C814.351,1246.38 821.064,1248.44 825.17,1252.54C829.275,1256.65 831.439,1262.36 831.661,1269.68ZM835.75,1264.2C834.726,1257.65 832.141,1252.38 828.095,1248.33C823.378,1243.61 815.741,1240.9 805.03,1240.9C795.919,1240.9 788.435,1242.35 782.56,1245.11C775.074,1248.62 771.5,1254.8 771.5,1263.36C771.5,1268.84 773.628,1273.66 778.302,1277.53C781.805,1280.43 787.869,1283.32 796.566,1285.98C796.546,1285.97 820.151,1293.62 820.151,1293.62C820.166,1293.62 820.182,1293.63 820.197,1293.63C826.422,1295.57 832.165,1297.82 837.424,1300.39C842.44,1302.85 846.848,1305.86 850.636,1309.44C854.221,1312.83 857.038,1316.85 859.073,1321.5C861.083,1326.1 862.044,1331.47 862.044,1337.59C862.044,1346.92 860.015,1354.87 855.836,1361.38C851.469,1368.18 845.715,1373.7 838.605,1377.96C831.216,1382.4 822.873,1385.55 813.583,1387.45C804.072,1389.39 794.452,1390.37 784.724,1390.37C776.545,1390.37 768.257,1389.5 759.862,1387.78C751.665,1386.1 744.253,1383.33 737.633,1379.44C731.292,1375.72 726.097,1370.8 722.071,1364.66C718.229,1358.8 716.392,1351.42 716.392,1342.59C716.392,1342.59 716.392,1341.08 716.392,1341.08C716.392,1341.08 750.861,1341.08 750.861,1341.08C750.861,1341.08 750.861,1341.26 750.861,1341.26C750.861,1346.61 752.233,1351.21 754.911,1355.08C757.298,1358.53 760.397,1361.4 764.243,1363.66C767.784,1365.73 771.809,1367.33 776.326,1368.43C780.739,1369.51 785.092,1370.04 789.385,1370.04C793.171,1370.04 796.957,1369.68 800.743,1368.98C804.763,1368.22 808.404,1366.89 811.671,1365C815.194,1362.97 818.021,1360.37 820.189,1357.25C822.607,1353.78 823.914,1349.36 823.914,1343.92C823.914,1335.67 821.463,1330.04 817.187,1326.68C813.766,1323.99 809.26,1321.63 803.64,1319.68C803.609,1319.67 803.579,1319.66 803.549,1319.65L767.286,1308C761.492,1306.07 756.393,1304.04 751.992,1301.89C747.939,1299.91 744.47,1297.46 741.604,1294.49C738.921,1291.72 736.884,1288.39 735.496,1284.5C734.041,1280.43 733.369,1275.37 733.369,1269.35C733.369,1260.55 735.356,1253.16 739.469,1247.23C743.839,1240.93 749.493,1235.82 756.402,1231.86C763.587,1227.74 771.461,1224.79 780.019,1222.99C788.733,1221.16 797.07,1220.24 805.03,1220.24C814.117,1220.24 822.88,1221 831.318,1222.51C839.424,1223.97 846.549,1226.59 852.68,1230.44C858.488,1234.08 863.076,1239.04 866.422,1245.34C869.138,1250.45 870.614,1256.75 870.967,1264.2L835.75,1264.2Z"/>
            <path d="M1046.04,1382.53L1080.33,1219.42L1035.05,1219.42L1029.73,1245.72L1029.06,1245.72C1024.18,1234.4 1017.19,1226.41 1008.09,1221.75C998.991,1217.09 988.45,1214.76 976.466,1214.76C962.707,1214.76 950.446,1217.81 939.682,1223.91C928.919,1230.02 919.82,1238.01 912.386,1247.88C904.951,1257.76 899.292,1268.85 895.409,1281.17C891.525,1293.49 889.583,1305.97 889.583,1318.62C889.583,1329.27 891.137,1338.87 894.243,1347.41C897.35,1355.96 901.733,1363.34 907.392,1369.55C913.051,1375.76 919.987,1380.54 928.198,1383.86C936.409,1387.19 945.619,1388.86 955.827,1388.86C975.135,1388.86 990.891,1380.76 1003.1,1364.56L1003.76,1365.22C1001.32,1373.43 998.88,1381.2 996.439,1388.53C993.998,1395.85 991.002,1402.17 987.451,1407.5C983.901,1412.83 979.628,1417.04 974.635,1420.15C969.642,1423.26 963.373,1424.81 955.827,1424.81C952.055,1424.81 948.282,1424.37 944.509,1423.48C940.736,1422.59 937.352,1421.15 934.356,1419.15C931.36,1417.15 928.974,1414.6 927.199,1411.49C925.424,1408.39 924.647,1404.61 924.869,1400.18L877.932,1400.18C877.932,1410.61 880.096,1419.37 884.423,1426.47C888.751,1433.58 894.41,1439.35 901.4,1443.78C908.391,1448.22 916.269,1451.44 925.035,1453.44C933.801,1455.43 942.512,1456.43 951.167,1456.43C965.37,1456.43 977.742,1454.99 988.283,1452.11C998.825,1449.22 1007.92,1444.78 1015.58,1438.79C1023.24,1432.8 1029.51,1425.14 1034.39,1415.82C1039.27,1406.5 1043.15,1395.4 1046.04,1382.53ZM1041.62,1381.15C1038.86,1393.42 1035.18,1404.01 1030.52,1412.9C1025.99,1421.55 1020.18,1428.64 1013.08,1434.2C1005.85,1439.86 997.233,1444.03 987.267,1446.76C977.015,1449.57 964.98,1450.95 951.167,1450.95C942.794,1450.95 934.368,1449.98 925.888,1448.05C917.6,1446.16 910.147,1443.13 903.538,1438.94C897.191,1434.91 892.041,1429.69 888.112,1423.24C885.105,1418.3 883.338,1412.43 882.736,1405.66C882.736,1405.66 920.513,1405.66 920.513,1405.66C920.945,1409 921.932,1411.97 923.43,1414.59C925.594,1418.38 928.486,1421.51 932.137,1423.94C935.529,1426.2 939.357,1427.85 943.63,1428.86C947.696,1429.81 951.761,1430.29 955.827,1430.29C964.223,1430.29 971.183,1428.47 976.739,1425.02C982.302,1421.55 987.064,1416.86 991.02,1410.92C994.832,1405.2 998.061,1398.42 1000.68,1390.56C1003.14,1383.18 1005.61,1375.34 1008.07,1367.07C1008.71,1364.9 1008.16,1362.48 1006.69,1361.01L1006.02,1360.35C1004.14,1358.46 1001.35,1358.7 999.707,1360.88C988.381,1375.91 973.742,1383.38 955.827,1383.38C946.16,1383.38 937.436,1381.82 929.661,1378.67C922.094,1375.6 915.692,1371.23 910.477,1365.51C905.292,1359.81 901.279,1353.05 898.432,1345.22C895.562,1337.33 894.153,1328.46 894.153,1318.62C894.153,1306.62 896,1294.79 899.683,1283.11C903.364,1271.43 908.73,1260.92 915.777,1251.56C922.817,1242.2 931.442,1234.65 941.635,1228.87C951.825,1223.09 963.44,1220.24 976.466,1220.24C987.768,1220.24 997.715,1222.4 1006.3,1226.79C1014.42,1230.95 1020.64,1238.13 1025,1248.24C1025.79,1250.06 1027.35,1251.2 1029.06,1251.2L1029.73,1251.2C1031.84,1251.2 1033.67,1249.47 1034.17,1247.01L1038.65,1224.9C1038.65,1224.9 1074.46,1224.9 1074.46,1224.9C1074.46,1224.9 1041.62,1381.15 1041.62,1381.15L1041.62,1381.15ZM985.121,1244.89C976.247,1244.89 968.493,1247.29 961.837,1251.97C955.311,1256.57 949.878,1262.31 945.527,1269.2C941.23,1276.01 937.945,1283.53 935.676,1291.77C933.402,1300.03 932.283,1307.87 932.283,1315.29C932.283,1320.99 932.972,1326.37 934.334,1331.45C935.754,1336.74 938.014,1341.46 941.112,1345.59C944.215,1349.73 948.083,1352.98 952.738,1355.3C957.225,1357.55 962.577,1358.72 968.81,1358.72C978.075,1358.72 986.172,1356.41 993.121,1351.9C1000.03,1347.42 1005.71,1341.71 1010.2,1334.8C1014.63,1327.98 1017.98,1320.38 1020.26,1311.99C1022.52,1303.64 1023.64,1295.53 1023.64,1287.66C1023.64,1275.24 1020.4,1265.07 1014.06,1257.08C1007.78,1249.16 998.191,1244.89 985.121,1244.89ZM985.121,1250.38C996.661,1250.38 1005.21,1253.87 1010.75,1260.86C1016.3,1267.85 1019.08,1276.79 1019.08,1287.66C1019.08,1294.98 1018.02,1302.53 1015.91,1310.3C1013.81,1318.06 1010.7,1325.11 1006.59,1331.43C1002.49,1337.76 997.271,1342.98 990.947,1347.08C984.622,1351.19 977.243,1353.24 968.81,1353.24C963.262,1353.24 958.49,1352.24 954.496,1350.24C950.501,1348.25 947.172,1345.47 944.509,1341.92C941.846,1338.37 939.904,1334.32 938.684,1329.77C937.463,1325.22 936.853,1320.39 936.853,1315.29C936.853,1308.41 937.907,1301.14 940.015,1293.49C942.123,1285.83 945.175,1278.84 949.17,1272.51C953.164,1266.19 958.157,1260.92 964.149,1256.7C970.141,1252.49 977.132,1250.38 985.121,1250.38Z"/>
        </g>
        <g transform="matrix(0.820647,0,0,0.685545,1083.64,491.866)">
            <path d="M746.442,1219.42L710.824,1391.52L757.761,1391.52L777.068,1299.31C778.178,1293.99 779.953,1288.55 782.394,1283C784.835,1277.45 787.887,1272.4 791.548,1267.85C795.21,1263.31 799.538,1259.53 804.531,1256.54C809.524,1253.54 815.128,1252.04 821.342,1252.04C827.334,1252.04 832.271,1253.82 836.155,1257.37C840.039,1260.92 841.981,1265.25 841.981,1270.35C841.981,1274.12 841.537,1278.23 840.649,1282.67L818.013,1391.52L865.615,1391.52L884.923,1299.31C886.032,1293.99 887.808,1288.55 890.249,1283C892.69,1277.45 895.741,1272.4 899.403,1267.85C903.065,1263.31 907.392,1259.53 912.386,1256.54C917.379,1253.54 922.983,1252.04 929.196,1252.04C935.188,1252.04 940.126,1253.82 944.01,1257.37C947.893,1260.92 949.835,1265.25 949.835,1270.35C949.835,1274.12 949.391,1278.23 948.504,1282.67L925.868,1391.52L973.137,1391.52L994.442,1290.32C995.551,1285.22 996.661,1279.95 997.771,1274.51C998.88,1269.08 999.435,1263.69 999.435,1258.37C999.435,1251.04 997.993,1244.61 995.108,1239.06C992.223,1233.51 988.339,1228.96 983.457,1225.41C978.574,1221.86 972.971,1219.2 966.646,1217.42C960.321,1215.65 953.83,1214.76 947.172,1214.76C941.624,1214.76 936.021,1215.48 930.361,1216.92C924.702,1218.37 919.321,1220.42 914.217,1223.08C909.112,1225.74 904.341,1228.91 899.903,1232.57C895.464,1236.23 891.802,1240.28 888.917,1244.72C886.92,1234.07 882.149,1226.41 874.603,1221.75C867.058,1217.09 857.959,1214.76 847.307,1214.76C834.657,1214.76 823.228,1217.09 813.02,1221.75C802.811,1226.41 794.156,1233.73 787.054,1243.72L786.389,1243.72L791.715,1219.42L746.442,1219.42ZM750.018,1224.89L785.792,1224.89C785.792,1224.89 781.969,1242.33 781.969,1242.33C781.609,1243.97 781.905,1245.72 782.771,1247.06C783.636,1248.4 784.972,1249.19 786.389,1249.19L787.054,1249.19C788.394,1249.19 789.666,1248.49 790.534,1247.27C797.129,1237.99 805.167,1231.19 814.648,1226.86C824.37,1222.42 835.259,1220.23 847.307,1220.23C857.137,1220.23 865.545,1222.31 872.508,1226.61C878.835,1230.52 882.784,1236.98 884.459,1245.92C884.846,1247.98 886.194,1249.59 887.919,1250.06C889.645,1250.52 891.438,1249.75 892.524,1248.08C895.14,1244.05 898.471,1240.39 902.496,1237.07C906.696,1233.61 911.212,1230.62 916.042,1228.1C920.87,1225.58 925.961,1223.64 931.313,1222.27C936.652,1220.91 941.938,1220.23 947.172,1220.23C953.473,1220.23 959.617,1221.07 965.603,1222.75C971.425,1224.38 976.589,1226.82 981.084,1230.09C985.332,1233.17 988.718,1237.12 991.228,1241.95C993.679,1246.66 994.866,1252.14 994.866,1258.37C994.866,1263.27 994.352,1268.21 993.332,1273.21C992.228,1278.62 991.124,1283.87 990.02,1288.95C990.017,1288.96 990.014,1288.97 990.011,1288.99L969.576,1386.05C969.576,1386.05 931.714,1386.05 931.714,1386.05C931.714,1386.05 952.938,1283.99 952.938,1283.99C952.941,1283.97 952.945,1283.96 952.948,1283.94C953.927,1279.04 954.405,1274.51 954.405,1270.35C954.405,1263.57 951.945,1257.74 946.783,1253.02C942.165,1248.8 936.322,1246.57 929.196,1246.57C922.224,1246.57 915.941,1248.28 910.338,1251.65C904.865,1254.93 900.126,1259.07 896.113,1264.06C892.15,1268.98 888.848,1274.45 886.206,1280.45C883.582,1286.41 881.682,1292.26 880.489,1297.99C880.49,1297.98 862.05,1386.05 862.05,1386.05C862.05,1386.05 823.859,1386.05 823.859,1386.05C823.859,1386.05 845.083,1283.99 845.083,1283.99C845.087,1283.97 845.09,1283.96 845.093,1283.94C846.072,1279.04 846.55,1274.51 846.55,1270.35C846.55,1263.57 844.09,1257.74 838.929,1253.02C834.31,1248.8 828.467,1246.57 821.342,1246.57C814.369,1246.57 808.087,1248.28 802.483,1251.65C797.01,1254.93 792.271,1259.07 788.258,1264.06C784.295,1268.98 780.993,1274.45 778.351,1280.45C775.727,1286.41 773.827,1292.26 772.634,1297.99C772.635,1297.98 754.195,1386.05 754.195,1386.05C754.195,1386.05 716.664,1386.05 716.664,1386.05L750.018,1224.89Z"/>
            <path d="M1045.04,1219.42L1009.42,1391.52L1056.36,1391.52L1075.67,1299.98C1077,1293.99 1078.94,1288.1 1081.49,1282.33C1084.04,1276.56 1087.26,1271.46 1091.14,1267.02C1095.03,1262.58 1099.69,1258.98 1105.13,1256.2C1110.56,1253.43 1116.83,1252.04 1123.93,1252.04C1129.48,1252.04 1134.64,1253.71 1139.41,1257.04C1144.18,1260.36 1146.57,1264.58 1146.57,1269.68C1146.57,1272.13 1146.18,1275.57 1145.4,1280C1144.63,1284.44 1144.02,1287.99 1143.57,1290.66L1122.6,1391.52L1169.87,1391.52L1191.18,1290.66C1191.4,1289.1 1191.79,1287.05 1192.34,1284.5C1192.9,1281.95 1193.45,1279.23 1194.01,1276.34C1194.56,1273.46 1195.06,1270.63 1195.5,1267.85C1195.95,1265.08 1196.17,1262.81 1196.17,1261.03C1196.17,1230.18 1179.41,1214.76 1145.9,1214.76C1121.05,1214.76 1100.96,1224.3 1085.65,1243.39L1084.99,1243.39L1090.31,1219.42L1045.04,1219.42ZM1048.62,1224.89L1084.37,1224.89C1084.37,1224.89 1080.57,1241.98 1080.57,1241.98C1080.21,1243.62 1080.5,1245.37 1081.36,1246.72C1082.23,1248.07 1083.57,1248.86 1084.99,1248.86L1085.65,1248.86C1086.9,1248.86 1088.09,1248.25 1088.95,1247.18C1103.41,1229.14 1122.42,1220.23 1145.9,1220.23C1164.31,1220.23 1177.32,1224.84 1184.67,1235C1189.38,1241.5 1191.6,1250.2 1191.6,1261.03C1191.6,1262.54 1191.39,1264.47 1191.02,1266.83C1190.58,1269.53 1190.1,1272.3 1189.55,1275.12C1189.01,1277.95 1188.46,1280.62 1187.92,1283.12C1187.35,1285.75 1186.95,1287.88 1186.7,1289.52C1186.7,1289.51 1166.31,1386.05 1166.31,1386.05C1166.31,1386.05 1128.45,1386.05 1128.45,1386.05C1128.45,1386.05 1148.01,1291.98 1148.01,1291.98C1148.03,1291.89 1148.04,1291.81 1148.06,1291.73C1148.5,1289.08 1149.11,1285.54 1149.88,1281.13C1150.74,1276.21 1151.14,1272.39 1151.14,1269.68C1151.14,1262.76 1148.18,1256.82 1141.71,1252.31C1136.23,1248.49 1130.31,1246.57 1123.93,1246.57C1116.15,1246.57 1109.29,1248.13 1103.34,1251.17C1097.36,1254.22 1092.25,1258.19 1087.99,1263.07C1083.75,1267.91 1080.24,1273.48 1077.45,1279.78C1074.73,1285.92 1072.67,1292.19 1071.25,1298.57C1071.25,1298.59 1071.24,1298.62 1071.24,1298.64L1052.8,1386.05C1052.8,1386.05 1015.26,1386.05 1015.26,1386.05L1048.62,1224.89Z"/>
            <path d="M1305.69,1219.42L1316.34,1167.16L1269.07,1167.16L1258.42,1219.42L1228.13,1219.42L1220.8,1251.04L1251.76,1251.04L1232.45,1343.25C1231.79,1346.36 1231.23,1349.3 1230.79,1352.07C1230.35,1354.85 1230.12,1357.35 1230.12,1359.56C1229.9,1366.66 1231.07,1372.43 1233.62,1376.87C1236.17,1381.31 1239.61,1384.81 1243.94,1387.36C1248.27,1389.91 1253.15,1391.69 1258.59,1392.69C1264.02,1393.68 1269.52,1394.18 1275.06,1394.18C1280.17,1394.18 1285.16,1394.02 1290.04,1393.68C1294.93,1393.35 1299.81,1392.96 1304.69,1392.52L1312.68,1356.24C1307.13,1356.9 1301.47,1357.23 1295.7,1357.23C1293.93,1357.23 1292.1,1357.18 1290.21,1357.07C1288.32,1356.96 1286.6,1356.46 1285.05,1355.57C1283.5,1354.68 1282.22,1353.4 1281.22,1351.74C1280.22,1350.08 1279.72,1347.69 1279.72,1344.58C1279.72,1343.92 1279.84,1342.86 1280.06,1341.42C1280.28,1339.98 1280.61,1338.37 1281.06,1336.6L1298.7,1251.04L1332.32,1251.04L1339.64,1219.42L1305.69,1219.42ZM1301.25,1218.12C1300.92,1219.75 1301.23,1221.48 1302.1,1222.8C1302.96,1224.12 1304.29,1224.89 1305.69,1224.89L1333.63,1224.89C1333.63,1224.89 1328.85,1245.57 1328.85,1245.57C1328.85,1245.57 1298.7,1245.57 1298.7,1245.57C1296.6,1245.57 1294.77,1247.29 1294.26,1249.73L1276.64,1335.16C1276.16,1337.09 1275.81,1338.85 1275.56,1340.43C1275.27,1342.32 1275.15,1343.71 1275.15,1344.58C1275.15,1349.1 1276.06,1352.51 1277.51,1354.93C1278.96,1357.36 1280.82,1359.21 1283.08,1360.51C1285.16,1361.69 1287.46,1362.38 1289.99,1362.53C1291.95,1362.65 1293.86,1362.7 1295.7,1362.7C1299.38,1362.7 1303.02,1362.57 1306.62,1362.31C1306.62,1362.31 1301.1,1387.35 1301.1,1387.35C1297.33,1387.67 1293.56,1387.97 1289.78,1388.22C1284.99,1388.55 1280.08,1388.71 1275.06,1388.71C1269.75,1388.71 1264.49,1388.24 1259.28,1387.28C1254.34,1386.37 1249.89,1384.77 1245.96,1382.45C1242.37,1380.34 1239.5,1377.45 1237.38,1373.77C1235.32,1370.19 1234.51,1365.5 1234.69,1359.77C1234.69,1359.7 1234.69,1359.63 1234.69,1359.56C1234.69,1357.65 1234.89,1355.5 1235.28,1353.1C1235.71,1350.43 1236.24,1347.6 1236.88,1344.61C1236.88,1344.6 1236.88,1344.59 1236.89,1344.58L1256.19,1252.37C1256.54,1250.74 1256.23,1249.01 1255.37,1247.68C1254.5,1246.35 1253.17,1245.57 1251.76,1245.57L1226.81,1245.57C1226.81,1245.57 1231.6,1224.89 1231.6,1224.89C1231.6,1224.89 1258.42,1224.89 1258.42,1224.89C1260.53,1224.89 1262.36,1223.17 1262.86,1220.72L1272.66,1172.63C1272.66,1172.63 1310.52,1172.63 1310.52,1172.63C1310.52,1172.63 1301.25,1218.12 1301.25,1218.12Z"/>
        </g>
        <g transform="matrix(1.41628,0,0,1.19092,-5029.97,-3554.48)">
            <path d="M4730.88,4009.6L4740.97,4009.6L4701.52,4199.06L4691.27,4199.06L4730.88,4009.6ZM4732.95,4012.74L4737.58,4012.74C4732.36,4037.84 4703.6,4176 4699.45,4195.91C4699.45,4195.91 4694.65,4195.91 4694.65,4195.91C4699.9,4170.81 4728.78,4032.65 4732.95,4012.74L4732.95,4012.74Z"/>
        </g>
    </g>
</svg>
