<?xml version="1.0" encoding="UTF-8" standalone="no"?>
<!DOCTYPE svg PUBLIC "-//W3C//DTD SVG 1.1//EN" "http://www.w3.org/Graphics/SVG/1.1/DTD/svg11.dtd">
<svg width="100%" height="100%" viewBox="0 0 938 947" version="1.1" xmlns="http://www.w3.org/2000/svg" xmlns:xlink="http://www.w3.org/1999/xlink" xml:space="preserve" xmlns:serif="http://www.serif.com/" style="fill-rule:evenodd;clip-rule:evenodd;stroke-linejoin:round;stroke-miterlimit:2;">
    <g id="Artboard1" transform="matrix(1,0,0,1,-1658.13,-383.308)">
        <rect x="1658.13" y="383.308" width="937.14" height="946.435" style="fill:none;"/>
        <g transform="matrix(0.820647,0,0,0.683987,1100.61,-413.122)">
            <text x="714.486px" y="1391.52px" style="font-family:'HelveticaNeue-BoldItalic', 'Helvetica Neue';font-weight:700;font-style:italic;font-size:332.885px;fill-opacity:0.25;">s<tspan x="883.924px " y="1391.52px ">g</tspan></text>
        </g>
        <g transform="matrix(0.820647,0,0,0.683987,1100.61,-109.968)">
            <text x="714.486px" y="1391.52px" style="font-family:'HelveticaNeue-BoldItalic', 'Helvetica Neue';font-weight:700;font-style:italic;font-size:332.885px;fill-opacity:0.65;">s<tspan x="883.924px " y="1391.52px ">g</tspan></text>
        </g>
        <g transform="matrix(0.820647,0,0,0.683987,1100.61,-260.665)">
            <text x="714.486px" y="1391.52px" style="font-family:'HelveticaNeue-BoldItalic', 'Helvetica Neue';font-weight:700;font-style:italic;font-size:332.885px;fill-opacity:0.45;">s<tspan x="883.924px " y="1391.52px ">g</tspan></text>
        </g>
        <g transform="matrix(0.820647,0,0,0.683987,1100.61,42.4898)">
            <text x="714.486px" y="1391.52px" style="font-family:'HelveticaNeue-BoldItalic', 'Helvetica Neue';font-weight:700;font-style:italic;font-size:332.885px;fill-opacity:0.85;">s<tspan x="883.924px " y="1391.52px ">g</tspan></text>
        </g>
        <g transform="matrix(0.820647,0,0,0.683987,1100.61,200.302)">
            <text x="714.486px" y="1391.52px" style="font-family:'HelveticaNeue-BoldItalic', 'Helvetica Neue';font-weight:700;font-style:italic;font-size:332.885px;">s<tspan x="883.924px " y="1391.52px ">g</tspan></text>
        </g>
        <g transform="matrix(0.820647,0,0,0.685545,1436.7,-307.743)">
            <text x="714.486px" y="1391.52px" style="font-family:'HelveticaNeue-BoldItalic', 'Helvetica Neue';font-weight:700;font-style:italic;font-size:332.885px;fill-opacity:0.25;">m<tspan x="1013.08px 1213.15px " y="1391.52px 1391.52px ">nt</tspan></text>
        </g>
        <g transform="matrix(0.820647,0,0,0.685545,1436.7,-4.58817)">
            <text x="714.486px" y="1391.52px" style="font-family:'HelveticaNeue-BoldItalic', 'Helvetica Neue';font-weight:700;font-style:italic;font-size:332.885px;fill-opacity:0.65;">m<tspan x="1013.08px 1213.15px " y="1391.52px 1391.52px ">nt</tspan></text>
        </g>
        <g transform="matrix(0.820647,0,0,0.685545,1436.7,-155.285)">
            <text x="714.486px" y="1391.52px" style="font-family:'HelveticaNeue-BoldItalic', 'Helvetica Neue';font-weight:700;font-style:italic;font-size:332.885px;fill-opacity:0.45;">m<tspan x="1013.08px 1213.15px " y="1391.52px 1391.52px ">nt</tspan></text>
        </g>
        <g transform="matrix(0.820647,0,0,0.685545,1436.7,147.869)">
            <text x="714.486px" y="1391.52px" style="font-family:'HelveticaNeue-BoldItalic', 'Helvetica Neue';font-weight:700;font-style:italic;font-size:332.885px;fill-opacity:0.85;">m<tspan x="1013.08px 1213.15px " y="1391.52px 1391.52px ">nt</tspan></text>
        </g>
        <g transform="matrix(0.820647,0,0,0.685545,1436.7,305.682)">
            <text x="714.486px" y="1391.52px" style="font-family:'HelveticaNeue-BoldItalic', 'Helvetica Neue';font-weight:700;font-style:italic;font-size:332.885px;">m<tspan x="1013.08px 1213.15px " y="1391.52px 1391.52px ">nt</tspan></text>
        </g>
        <g transform="matrix(1.41628,0,0,1.19092,-4676.91,-4354.09)">
            <path d="M4730.88,4009.6L4740.97,4009.6L4701.52,4199.06L4691.27,4199.06L4730.88,4009.6Z" style="fill-opacity:0.25;"/>
        </g>
        <g transform="matrix(1.41628,0,0,1.19092,-4676.91,-4050.93)">
            <path d="M4730.88,4009.6L4740.97,4009.6L4701.52,4199.06L4691.27,4199.06L4730.88,4009.6Z" style="fill-opacity:0.65;"/>
        </g>
        <g transform="matrix(1.41628,0,0,1.19092,-4676.91,-4201.63)">
            <path d="M4730.88,4009.6L4740.97,4009.6L4701.52,4199.06L4691.27,4199.06L4730.88,4009.6Z" style="fill-opacity:0.45;"/>
        </g>
        <g transform="matrix(1.41628,0,0,1.19092,-4676.91,-3898.47)">
            <path d="M4730.88,4009.6L4740.97,4009.6L4701.52,4199.06L4691.27,4199.06L4730.88,4009.6Z" style="fill-opacity:0.85;"/>
        </g>
        <g transform="matrix(1.41628,0,0,1.19092,-4676.91,-3740.66)">
            <path d="M4730.88,4009.6L4740.97,4009.6L4701.52,4199.06L4691.27,4199.06L4730.88,4009.6Z"/>
        </g>
        <g transform="matrix(0.820647,0,0,0.683987,1109.49,-405.432)">
            <text x="714.486px" y="1391.52px" style="font-family:'HelveticaNeue-BoldItalic', 'Helvetica Neue';font-weight:700;font-style:italic;font-size:332.885px;fill:none;stroke:black;stroke-opacity:0.25;stroke-width:3.86px;">s<tspan x="883.924px " y="1391.52px ">g</tspan></text>
        </g>
        <g transform="matrix(0.820647,0,0,0.683987,1109.49,-102.277)">
            <text x="714.486px" y="1391.52px" style="font-family:'HelveticaNeue-BoldItalic', 'Helvetica Neue';font-weight:700;font-style:italic;font-size:332.885px;fill:none;stroke:black;stroke-opacity:0.67;stroke-width:3.86px;">s<tspan x="883.924px " y="1391.52px ">g</tspan></text>
        </g>
        <g transform="matrix(0.820647,0,0,0.683987,1109.49,-252.974)">
            <text x="714.486px" y="1391.52px" style="font-family:'HelveticaNeue-BoldItalic', 'Helvetica Neue';font-weight:700;font-style:italic;font-size:332.885px;fill:none;stroke:black;stroke-opacity:0.45;stroke-width:3.86px;">s<tspan x="883.924px " y="1391.52px ">g</tspan></text>
        </g>
        <g transform="matrix(0.820647,0,0,0.683987,1109.49,50.1801)">
            <text x="714.486px" y="1391.52px" style="font-family:'HelveticaNeue-BoldItalic', 'Helvetica Neue';font-weight:700;font-style:italic;font-size:332.885px;fill:none;stroke:black;stroke-opacity:0.84;stroke-width:3.86px;">s<tspan x="883.924px " y="1391.52px ">g</tspan></text>
        </g>
        <g transform="matrix(0.820647,0,0,0.683987,1109.49,207.993)">
            <text x="714.486px" y="1391.52px" style="font-family:'HelveticaNeue-BoldItalic', 'Helvetica Neue';font-weight:700;font-style:italic;font-size:332.885px;fill:none;stroke:black;stroke-width:3.86px;">s<tspan x="883.924px " y="1391.52px ">g</tspan></text>
        </g>
        <g transform="matrix(0.820647,0,0,0.685545,1445.58,-300.052)">
            <text x="714.486px" y="1391.52px" style="font-family:'HelveticaNeue-BoldItalic', 'Helvetica Neue';font-weight:700;font-style:italic;font-size:332.885px;fill:none;stroke:black;stroke-opacity:0.25;stroke-width:3.86px;">m<tspan x="1013.08px 1213.15px " y="1391.52px 1391.52px ">nt</tspan></text>
        </g>
        <g transform="matrix(0.820647,0,0,0.685545,1445.58,3.1021)">
            <text x="714.486px" y="1391.52px" style="font-family:'HelveticaNeue-BoldItalic', 'Helvetica Neue';font-weight:700;font-style:italic;font-size:332.885px;fill:none;stroke:black;stroke-opacity:0.67;stroke-width:3.86px;">m<tspan x="1013.08px 1213.15px " y="1391.52px 1391.52px ">nt</tspan></text>
        </g>
        <g transform="matrix(0.820647,0,0,0.685545,1445.58,-147.595)">
            <text x="714.486px" y="1391.52px" style="font-family:'HelveticaNeue-BoldItalic', 'Helvetica Neue';font-weight:700;font-style:italic;font-size:332.885px;fill:none;stroke:black;stroke-opacity:0.45;stroke-width:3.86px;">m<tspan x="1013.08px 1213.15px " y="1391.52px 1391.52px ">nt</tspan></text>
        </g>
        <g transform="matrix(0.820647,0,0,0.685545,1445.58,155.56)">
            <text x="714.486px" y="1391.52px" style="font-family:'HelveticaNeue-BoldItalic', 'Helvetica Neue';font-weight:700;font-style:italic;font-size:332.885px;fill:none;stroke:black;stroke-opacity:0.84;stroke-width:3.86px;">m<tspan x="1013.08px 1213.15px " y="1391.52px 1391.52px ">nt</tspan></text>
        </g>
        <g transform="matrix(0.820647,0,0,0.685545,1445.58,313.372)">
            <text x="714.486px" y="1391.52px" style="font-family:'HelveticaNeue-BoldItalic', 'Helvetica Neue';font-weight:700;font-style:italic;font-size:332.885px;fill:none;stroke:black;stroke-width:3.86px;">m<tspan x="1013.08px 1213.15px " y="1391.52px 1391.52px ">nt</tspan></text>
        </g>
        <g transform="matrix(1.41628,0,0,1.19092,-4668.03,-4346.4)">
            <path d="M4730.88,4009.6L4740.97,4009.6L4701.52,4199.06L4691.27,4199.06L4730.88,4009.6Z" style="fill:none;stroke:black;stroke-opacity:0.25;stroke-width:2.23px;stroke-linecap:square;stroke-miterlimit:1.5;"/>
        </g>
        <g transform="matrix(1.41628,0,0,1.19092,-4668.03,-4043.24)">
            <path d="M4730.88,4009.6L4740.97,4009.6L4701.52,4199.06L4691.27,4199.06L4730.88,4009.6Z" style="fill:none;stroke:black;stroke-opacity:0.67;stroke-width:2.23px;stroke-linecap:square;stroke-miterlimit:1.5;"/>
        </g>
        <g transform="matrix(1.41628,0,0,1.19092,-4668.03,-4193.94)">
            <path d="M4730.88,4009.6L4740.97,4009.6L4701.52,4199.06L4691.27,4199.06L4730.88,4009.6Z" style="fill:none;stroke:black;stroke-opacity:0.45;stroke-width:2.23px;stroke-linecap:square;stroke-miterlimit:1.5;"/>
        </g>
        <g transform="matrix(1.41628,0,0,1.19092,-4668.03,-3890.78)">
            <path d="M4730.88,4009.6L4740.97,4009.6L4701.52,4199.06L4691.27,4199.06L4730.88,4009.6Z" style="fill:none;stroke:black;stroke-opacity:0.84;stroke-width:2.23px;stroke-linecap:square;stroke-miterlimit:1.5;"/>
        </g>
        <g transform="matrix(1.41628,0,0,1.19092,-4668.03,-3732.97)">
            <path d="M4730.88,4009.6L4740.97,4009.6L4701.52,4199.06L4691.27,4199.06L4730.88,4009.6Z" style="fill:none;stroke:black;stroke-width:2.23px;stroke-linecap:square;stroke-miterlimit:1.5;"/>
        </g>
    </g>
</svg>
