<?xml version="1.0" encoding="UTF-8" standalone="no"?>
<!DOCTYPE svg PUBLIC "-//W3C//DTD SVG 1.1//EN" "http://www.w3.org/Graphics/SVG/1.1/DTD/svg11.dtd">
<svg width="100%" height="100%" viewBox="0 0 1701 490" version="1.1" xmlns="http://www.w3.org/2000/svg" xmlns:xlink="http://www.w3.org/1999/xlink" xml:space="preserve" xmlns:serif="http://www.serif.com/" style="fill-rule:evenodd;clip-rule:evenodd;stroke-linejoin:round;stroke-miterlimit:2;">
    <g id="Artboard2" transform="matrix(0.773911,0,0,0.545647,381.587,591.584)">
        <rect x="-493.063" y="-1084.19" width="2197.44" height="897.59" style="fill:none;"/>
        <g transform="matrix(1.06039,0,0,1.25639,-1180.23,-2404.15)">
            <path d="M763.42,1111.3L713.487,1348.98L762.088,1348.98L796.042,1182.2L796.708,1182.2L861.954,1348.98L914.217,1348.98L964.482,1111.3L916.547,1111.3L882.592,1280.4L881.927,1280.4L817.347,1111.3L763.42,1111.3ZM767.378,1117.37L814.085,1117.37C814.085,1117.37 877.309,1282.93 877.309,1282.93C878.135,1285.09 879.94,1286.48 881.927,1286.48L882.592,1286.48C884.94,1286.48 886.981,1284.55 887.529,1281.82L920.548,1117.37C920.548,1117.37 957.959,1117.37 957.959,1117.37C950.179,1154.16 916.433,1313.73 910.264,1342.9C910.264,1342.9 865.182,1342.9 865.182,1342.9C865.182,1342.9 801.306,1179.62 801.306,1179.62C800.471,1177.49 798.678,1176.12 796.708,1176.12L796.042,1176.12C793.701,1176.12 791.664,1178.04 791.109,1180.76L758.1,1342.9C758.1,1342.9 719.999,1342.9 719.999,1342.9L767.378,1117.37Z" style="fill:white;"/>
            <path d="M1006.76,1111.3L956.826,1348.98L1008.76,1348.98L1029.73,1250.77L1131.26,1250.77L1139.91,1210.16L1038.05,1210.16L1049.7,1155.24L1166.21,1155.24L1175.86,1111.3L1006.76,1111.3ZM1010.72,1117.37L1169.28,1117.37C1169.28,1117.37 1162.3,1149.16 1162.3,1149.16C1162.3,1149.16 1049.7,1149.16 1049.7,1149.16C1047.38,1149.16 1045.35,1151.05 1044.78,1153.74L1033.13,1208.67C1032.74,1210.48 1033.08,1212.41 1034.04,1213.89C1035,1215.37 1036.48,1216.24 1038.05,1216.24L1133.38,1216.24C1133.38,1216.24 1127.31,1244.7 1127.31,1244.7C1127.31,1244.7 1029.73,1244.7 1029.73,1244.7C1027.41,1244.7 1025.38,1246.58 1024.81,1249.27L1004.81,1342.9C1004.81,1342.9 963.338,1342.9 963.338,1342.9L1010.72,1117.37Z" style="fill:white;"/>
            <path d="M1268.41,1155.24L1227.79,1348.98L1280.39,1348.98L1321,1155.24L1392.24,1155.24L1401.56,1111.3L1203.16,1111.3L1193.84,1155.24L1268.41,1155.24ZM1273.33,1156.72C1273.71,1154.9 1273.37,1152.98 1272.41,1151.5C1271.45,1150.02 1269.97,1149.16 1268.41,1149.16L1200.37,1149.16C1200.37,1149.16 1207.11,1117.37 1207.11,1117.37C1207.11,1117.37 1395.03,1117.37 1395.03,1117.37C1395.03,1117.37 1388.29,1149.16 1388.29,1149.16C1388.29,1149.16 1321,1149.16 1321,1149.16C1318.67,1149.16 1316.64,1151.05 1316.08,1153.76L1276.43,1342.9C1276.43,1342.9 1234.3,1342.9 1234.3,1342.9C1234.3,1342.9 1273.33,1156.72 1273.33,1156.72Z" style="fill:white;"/>
            <path d="M1480.12,1227.14L1524.06,1227.14C1524.28,1216.04 1522.51,1206.94 1518.74,1199.84C1514.96,1192.74 1509.8,1187.14 1503.26,1183.03C1496.71,1178.93 1489.11,1176.1 1480.45,1174.54C1471.8,1172.99 1462.81,1172.21 1453.49,1172.21C1445.28,1172.21 1436.68,1173.16 1427.69,1175.04C1418.7,1176.93 1410.44,1180.04 1402.89,1184.36C1395.35,1188.69 1389.19,1194.3 1384.42,1201.17C1379.64,1208.05 1377.26,1216.6 1377.26,1226.81C1377.26,1233.69 1378.09,1239.46 1379.76,1244.12C1381.42,1248.78 1383.86,1252.77 1387.08,1256.1C1390.3,1259.43 1394.18,1262.2 1398.73,1264.42C1403.28,1266.64 1408.55,1268.75 1414.54,1270.75L1450.83,1282.4C1455.93,1284.17 1460.04,1286.28 1463.14,1288.72C1466.25,1291.16 1467.8,1295.38 1467.8,1301.37C1467.8,1305.37 1466.92,1308.64 1465.14,1311.19C1463.37,1313.75 1461.04,1315.85 1458.15,1317.52C1455.27,1319.18 1452.05,1320.35 1448.5,1321.01C1444.95,1321.68 1441.4,1322.01 1437.85,1322.01C1433.85,1322.01 1429.8,1321.51 1425.69,1320.51C1421.59,1319.52 1417.93,1318.07 1414.71,1316.19C1411.49,1314.3 1408.88,1311.91 1406.89,1309.03C1404.89,1306.14 1403.89,1302.7 1403.89,1298.71L1403.89,1293.05L1360.28,1293.05L1360.28,1300.04C1360.28,1310.25 1362.5,1318.74 1366.94,1325.51C1371.38,1332.28 1377.09,1337.71 1384.08,1341.82C1391.07,1345.92 1398.9,1348.87 1407.55,1350.64C1416.21,1352.41 1424.75,1353.3 1433.18,1353.3C1443.17,1353.3 1453.05,1352.3 1462.81,1350.31C1472.58,1348.31 1481.34,1344.98 1489.11,1340.32C1496.88,1335.66 1503.15,1329.61 1507.92,1322.18C1512.69,1314.74 1515.07,1305.7 1515.07,1295.05C1515.07,1287.95 1513.91,1281.73 1511.58,1276.41C1509.25,1271.08 1506.03,1266.48 1501.92,1262.59C1497.82,1258.71 1493.05,1255.43 1487.61,1252.77C1482.17,1250.11 1476.24,1247.78 1469.8,1245.78L1446.17,1238.12C1438.18,1235.68 1432.57,1233.13 1429.36,1230.47C1426.14,1227.81 1424.53,1224.59 1424.53,1220.82C1424.53,1214.6 1427.25,1210.22 1432.68,1207.67C1438.12,1205.11 1445.06,1203.84 1453.49,1203.84C1462.81,1203.84 1469.52,1205.89 1473.63,1210C1477.74,1214.1 1479.9,1219.82 1480.12,1227.14ZM1484.63,1221.06C1483.54,1214.59 1480.92,1209.36 1476.88,1205.33C1472.1,1200.55 1464.36,1197.76 1453.49,1197.76C1444.3,1197.76 1436.76,1199.23 1430.83,1202.01C1423.12,1205.63 1419.45,1212 1419.45,1220.82C1419.45,1226.48 1421.64,1231.47 1426.47,1235.47C1430.01,1238.39 1436.12,1241.33 1444.89,1244.01C1444.87,1244 1468.48,1251.65 1468.48,1251.65C1468.49,1251.65 1468.51,1251.66 1468.53,1251.66C1474.73,1253.59 1480.45,1255.83 1485.69,1258.4C1490.66,1260.83 1495.03,1263.81 1498.78,1267.36C1502.31,1270.7 1505.08,1274.65 1507.08,1279.23C1509.06,1283.74 1510,1289.03 1510,1295.05C1510,1304.24 1508.01,1312.06 1503.89,1318.48C1499.57,1325.21 1493.87,1330.66 1486.83,1334.89C1479.49,1339.3 1471.19,1342.43 1461.96,1344.32C1452.47,1346.26 1442.88,1347.23 1433.18,1347.23C1425.03,1347.23 1416.78,1346.37 1408.41,1344.65C1400.27,1342.98 1392.9,1340.23 1386.32,1336.36C1380.05,1332.68 1374.91,1327.82 1370.93,1321.75C1367.16,1315.99 1365.36,1308.73 1365.36,1300.04C1365.36,1300.04 1365.36,1299.13 1365.36,1299.13L1398.82,1299.13C1398.89,1304.45 1400.3,1309.04 1402.98,1312.91C1405.41,1316.42 1408.56,1319.35 1412.48,1321.64C1416.05,1323.74 1420.12,1325.36 1424.68,1326.47C1429.13,1327.55 1433.52,1328.09 1437.85,1328.09C1441.66,1328.09 1445.47,1327.73 1449.28,1327.02C1453.36,1326.25 1457.05,1324.9 1460.36,1322.99C1463.95,1320.92 1466.83,1318.26 1469.04,1315.08C1471.53,1311.51 1472.88,1306.97 1472.88,1301.37C1472.88,1292.88 1470.33,1287.1 1465.93,1283.64C1462.47,1280.93 1457.92,1278.54 1452.24,1276.56C1452.21,1276.55 1452.18,1276.54 1452.14,1276.53L1415.88,1264.88C1410.11,1262.96 1405.03,1260.93 1400.65,1258.79C1396.65,1256.84 1393.23,1254.43 1390.4,1251.5C1387.78,1248.79 1385.78,1245.53 1384.42,1241.73C1382.99,1237.71 1382.34,1232.73 1382.34,1226.81C1382.34,1218.16 1384.28,1210.89 1388.32,1205.06C1392.65,1198.82 1398.25,1193.77 1405.09,1189.85C1412.23,1185.75 1420.06,1182.82 1428.57,1181.03C1437.25,1179.21 1445.56,1178.29 1453.49,1178.29C1462.55,1178.29 1471.29,1179.04 1479.7,1180.55C1487.75,1182 1494.82,1184.6 1500.9,1188.42C1506.63,1192.01 1511.15,1196.89 1514.45,1203.11C1517.05,1208 1518.49,1213.99 1518.89,1221.06L1484.63,1221.06Z" style="fill:white;"/>
            <path d="M831.661,1490.67L875.602,1490.67C875.824,1479.57 874.048,1470.47 870.276,1463.37C866.503,1456.27 861.343,1450.66 854.797,1446.56C848.25,1442.45 840.649,1439.62 831.994,1438.07C823.339,1436.52 814.351,1435.74 805.03,1435.74C796.819,1435.74 788.22,1436.68 779.232,1438.57C770.244,1440.46 761.977,1443.56 754.432,1447.89C746.886,1452.22 740.728,1457.82 735.957,1464.7C731.185,1471.58 728.8,1480.12 728.8,1490.33C728.8,1497.21 729.632,1502.98 731.296,1507.64C732.961,1512.3 735.402,1516.3 738.62,1519.63C741.838,1522.96 745.721,1525.73 750.271,1527.95C754.82,1530.17 760.091,1532.28 766.083,1534.27L802.367,1545.92C807.471,1547.7 811.577,1549.81 814.684,1552.25C817.791,1554.69 819.344,1558.91 819.344,1564.9C819.344,1568.89 818.457,1572.17 816.681,1574.72C814.906,1577.27 812.576,1579.38 809.691,1581.04C806.806,1582.71 803.588,1583.87 800.037,1584.54C796.486,1585.2 792.935,1585.54 789.385,1585.54C785.39,1585.54 781.34,1585.04 777.234,1584.04C773.129,1583.04 769.467,1581.6 766.249,1579.71C763.031,1577.83 760.424,1575.44 758.426,1572.56C756.429,1569.67 755.43,1566.23 755.43,1562.24L755.43,1556.58L711.822,1556.58L711.822,1563.57C711.822,1573.78 714.042,1582.27 718.48,1589.03C722.919,1595.8 728.633,1601.24 735.624,1605.35C742.614,1609.45 750.437,1612.39 759.092,1614.17C767.747,1615.94 776.291,1616.83 784.724,1616.83C794.711,1616.83 804.586,1615.83 814.351,1613.83C824.116,1611.84 832.882,1608.51 840.649,1603.85C848.416,1599.19 854.686,1593.14 859.457,1585.7C864.228,1578.27 866.614,1569.23 866.614,1558.57C866.614,1551.47 865.449,1545.26 863.119,1539.93C860.789,1534.61 857.571,1530 853.465,1526.12C849.359,1522.23 844.588,1518.96 839.151,1516.3C833.714,1513.63 827.777,1511.31 821.342,1509.31L797.707,1501.65C789.718,1499.21 784.114,1496.66 780.896,1494C777.678,1491.33 776.069,1488.11 776.069,1484.34C776.069,1478.13 778.788,1473.74 784.225,1471.19C789.662,1468.64 796.597,1467.36 805.03,1467.36C814.351,1467.36 821.064,1469.42 825.17,1473.52C829.275,1477.63 831.439,1483.34 831.661,1490.67ZM836.171,1484.59C835.075,1478.11 832.457,1472.89 828.425,1468.86C823.638,1464.07 815.897,1461.29 805.03,1461.29C795.842,1461.29 788.296,1462.75 782.371,1465.53C774.662,1469.15 770.992,1475.53 770.992,1484.34C770.992,1490.01 773.178,1495 778.009,1498.99C781.545,1501.92 787.659,1504.85 796.434,1507.54C796.414,1507.53 820.015,1515.17 820.015,1515.17C820.033,1515.18 820.05,1515.18 820.067,1515.19C826.269,1517.12 831.989,1519.36 837.228,1521.92C842.198,1524.36 846.565,1527.34 850.317,1530.89C853.846,1534.23 856.618,1538.17 858.621,1542.75C860.597,1547.27 861.537,1552.55 861.537,1558.57C861.537,1567.76 859.546,1575.59 855.431,1582C851.108,1588.74 845.411,1594.19 838.374,1598.41C831.027,1602.82 822.732,1605.95 813.496,1607.84C804.013,1609.78 794.423,1610.75 784.724,1610.75C776.573,1610.75 768.315,1609.89 759.95,1608.18C751.805,1606.51 744.439,1603.75 737.86,1599.89C731.591,1596.21 726.454,1591.35 722.474,1585.28C718.696,1579.52 716.9,1572.26 716.9,1563.57C716.9,1563.57 716.9,1562.65 716.9,1562.65L750.356,1562.65C750.426,1567.98 751.836,1572.56 754.517,1576.43C756.947,1579.94 760.101,1582.88 764.016,1585.17C767.593,1587.27 771.66,1588.89 776.223,1590C780.67,1591.08 785.058,1591.62 789.385,1591.62C793.197,1591.62 797.01,1591.26 800.823,1590.54C804.897,1589.78 808.585,1588.43 811.895,1586.52C815.489,1584.45 818.371,1581.79 820.583,1578.61C823.069,1575.04 824.422,1570.49 824.422,1564.9C824.422,1556.41 821.872,1550.63 817.47,1547.17C814.014,1544.45 809.462,1542.06 803.784,1540.09C803.75,1540.08 803.716,1540.07 803.683,1540.05L767.423,1528.41C761.65,1526.49 756.571,1524.46 752.187,1522.32C748.189,1520.37 744.767,1517.95 741.94,1515.03C739.315,1512.31 737.322,1509.06 735.965,1505.25C734.531,1501.24 733.877,1496.26 733.877,1490.33C733.877,1481.68 735.82,1474.41 739.863,1468.58C744.188,1462.35 749.786,1457.29 756.626,1453.37C763.769,1449.27 771.599,1446.34 780.108,1444.56C788.791,1442.73 797.098,1441.82 805.03,1441.82C814.091,1441.82 822.828,1442.57 831.241,1444.08C839.285,1445.52 846.356,1448.13 852.44,1451.94C858.167,1455.53 862.692,1460.42 865.991,1466.63C868.59,1471.52 870.03,1477.52 870.428,1484.59L836.171,1484.59Z" style="fill:white;"/>
            <path d="M936.853,1537.94L1063.68,1537.94C1065.46,1528.39 1066.35,1519.4 1066.35,1510.97C1066.35,1498.54 1064.4,1487.61 1060.52,1478.18C1056.64,1468.75 1051.2,1460.87 1044.21,1454.55C1037.22,1448.22 1028.79,1443.51 1018.91,1440.4C1009.03,1437.29 998.104,1435.74 986.12,1435.74C971.473,1435.74 958.268,1438.68 946.506,1444.56C934.744,1450.44 924.813,1458.32 916.713,1468.2C908.613,1478.07 902.344,1489.39 897.905,1502.15C893.467,1514.91 891.247,1528.17 891.247,1541.93C891.247,1554.36 893.078,1565.23 896.74,1574.55C900.402,1583.87 905.562,1591.7 912.219,1598.02C918.877,1604.35 926.922,1609.06 936.353,1612.17C945.785,1615.28 956.271,1616.83 967.811,1616.83C980.239,1616.83 991.169,1615.61 1000.6,1613.17C1010.03,1610.73 1018.3,1607.01 1025.4,1602.02C1032.5,1597.02 1038.61,1590.86 1043.71,1583.54C1048.81,1576.22 1053.25,1567.67 1057.02,1557.91L1009.75,1557.91C1007.98,1560.57 1006.04,1563.35 1003.93,1566.23C1001.82,1569.12 999.38,1571.67 996.606,1573.89C993.832,1576.11 990.614,1577.94 986.952,1579.38C983.29,1580.82 979.129,1581.54 974.469,1581.54C961.597,1581.54 952.055,1578.44 945.841,1572.22C939.627,1566.01 936.52,1557.91 936.52,1547.92L936.52,1540.93C936.52,1540.04 936.631,1539.05 936.853,1537.94ZM936.853,1531.86C934.504,1531.86 932.462,1533.79 931.915,1536.52C931.588,1538.15 931.443,1539.62 931.443,1540.93L931.443,1547.92C931.443,1559.83 935.175,1569.48 942.586,1576.89C949.522,1583.82 960.1,1587.62 974.469,1587.62C979.723,1587.62 984.411,1586.78 988.539,1585.15C992.671,1583.53 996.296,1581.44 999.427,1578.94C1002.58,1576.42 1005.35,1573.51 1007.75,1570.23C1009.32,1568.09 1010.79,1566.01 1012.18,1563.99C1012.18,1563.99 1048.75,1563.99 1048.75,1563.99C1046.06,1569.74 1043.08,1574.96 1039.81,1579.65C1035.08,1586.44 1029.41,1592.14 1022.83,1596.78C1016.16,1601.47 1008.39,1604.93 999.527,1607.23C990.405,1609.59 979.832,1610.75 967.811,1610.75C956.766,1610.75 946.728,1609.28 937.701,1606.31C928.981,1603.44 921.531,1599.11 915.375,1593.26C909.335,1587.52 904.657,1580.42 901.335,1571.97C897.964,1563.39 896.325,1553.37 896.325,1541.93C896.325,1528.98 898.415,1516.5 902.592,1504.49C906.78,1492.45 912.694,1481.77 920.336,1472.45C927.98,1463.13 937.363,1455.72 948.463,1450.17C959.643,1444.58 972.198,1441.82 986.12,1441.82C997.631,1441.82 1008.13,1443.29 1017.62,1446.28C1026.8,1449.17 1034.65,1453.52 1041.15,1459.4C1047.5,1465.14 1052.44,1472.3 1055.96,1480.87C1059.53,1489.53 1061.27,1499.57 1061.27,1510.97C1061.27,1517.58 1060.69,1524.54 1059.54,1531.86C1059.54,1531.86 936.853,1531.86 936.853,1531.86ZM1020.74,1514.05C1023.54,1514.05 1025.82,1511.33 1025.82,1507.98C1025.82,1503.11 1025.39,1498.3 1024.54,1493.55C1023.61,1488.36 1021.81,1483.63 1019.15,1479.37C1016.43,1475.03 1012.54,1471.49 1007.38,1468.91C1002.67,1466.56 996.477,1465.28 988.783,1465.28C981.528,1465.28 975.124,1466.4 969.562,1468.58C963.905,1470.79 958.994,1473.76 954.812,1477.45C950.572,1481.19 947.023,1485.56 944.155,1490.55C941.417,1495.31 939.096,1500.31 937.191,1505.55C936.507,1507.43 936.661,1509.59 937.599,1511.31C938.538,1513.02 940.134,1514.05 941.846,1514.05L1020.74,1514.05ZM1020.74,1507.98L941.846,1507.98C943.621,1503.09 945.785,1498.43 948.337,1494C950.889,1489.56 954.052,1485.67 957.825,1482.34C961.597,1479.02 966.036,1476.35 971.14,1474.35C976.244,1472.36 982.125,1471.36 988.783,1471.36C995.662,1471.36 1001.21,1472.41 1005.43,1474.52C1009.64,1476.63 1012.86,1479.46 1015.08,1483.01C1017.3,1486.56 1018.8,1490.5 1019.58,1494.83C1020.35,1499.15 1020.74,1503.54 1020.74,1507.98Z" style="fill:white;"/>
            <path d="M1241.78,1603.51L1276.06,1440.4L1230.79,1440.4L1225.46,1466.7L1224.8,1466.7C1219.92,1455.38 1212.92,1447.39 1203.83,1442.73C1194.73,1438.07 1184.19,1435.74 1172.2,1435.74C1158.44,1435.74 1146.18,1438.79 1135.42,1444.89C1124.65,1451 1115.56,1458.99 1108.12,1468.86C1100.69,1478.74 1095.03,1489.83 1091.14,1502.15C1087.26,1514.47 1085.32,1526.95 1085.32,1539.6C1085.32,1550.25 1086.87,1559.85 1089.98,1568.39C1093.09,1576.94 1097.47,1584.32 1103.13,1590.53C1108.79,1596.75 1115.72,1601.52 1123.93,1604.85C1132.14,1608.17 1141.36,1609.84 1151.56,1609.84C1170.87,1609.84 1186.63,1601.74 1198.83,1585.54L1199.5,1586.2C1197.06,1594.41 1194.62,1602.18 1192.18,1609.51C1189.73,1616.83 1186.74,1623.15 1183.19,1628.48C1179.64,1633.81 1175.37,1638.02 1170.37,1641.13C1165.38,1644.24 1159.11,1645.79 1151.56,1645.79C1147.79,1645.79 1144.02,1645.35 1140.25,1644.46C1136.47,1643.57 1133.09,1642.13 1130.09,1640.13C1127.1,1638.13 1124.71,1635.58 1122.94,1632.48C1121.16,1629.37 1120.38,1625.6 1120.61,1621.16L1073.67,1621.16C1073.67,1631.59 1075.83,1640.35 1080.16,1647.45C1084.49,1654.56 1090.15,1660.33 1097.14,1664.77C1104.13,1669.2 1112.01,1672.42 1120.77,1674.42C1129.54,1676.42 1138.25,1677.41 1146.9,1677.41C1161.11,1677.41 1173.48,1675.97 1184.02,1673.09C1194.56,1670.2 1203.66,1665.76 1211.32,1659.77C1218.97,1653.78 1225.24,1646.12 1230.12,1636.8C1235.01,1627.48 1238.89,1616.38 1241.78,1603.51ZM1236.86,1601.98C1234.12,1614.19 1230.46,1624.73 1225.82,1633.57C1221.34,1642.14 1215.58,1649.18 1208.54,1654.68C1201.35,1660.31 1192.79,1664.45 1182.89,1667.16C1172.67,1669.96 1160.67,1671.34 1146.9,1671.34C1138.56,1671.34 1130.17,1670.37 1121.72,1668.45C1113.49,1666.57 1106.08,1663.57 1099.52,1659.39C1093.24,1655.41 1088.15,1650.25 1084.26,1643.87C1081.4,1639.18 1079.69,1633.62 1079.04,1627.24C1079.04,1627.24 1115.82,1627.24 1115.82,1627.24C1116.29,1630.46 1117.28,1633.35 1118.75,1635.91C1120.95,1639.77 1123.9,1642.96 1127.62,1645.44C1131.06,1647.73 1134.94,1649.4 1139.27,1650.42C1143.37,1651.39 1147.46,1651.87 1151.56,1651.87C1160.06,1651.87 1167.09,1650.02 1172.71,1646.52C1178.34,1643.02 1183.15,1638.27 1187.16,1632.27C1191,1626.51 1194.25,1619.68 1196.89,1611.76C1199.36,1604.37 1201.82,1596.53 1204.28,1588.24C1205,1585.85 1204.38,1583.17 1202.75,1581.54L1202.09,1580.87C1199.99,1578.78 1196.89,1579.04 1195.06,1581.47C1183.84,1596.37 1169.32,1603.76 1151.56,1603.76C1141.96,1603.76 1133.29,1602.22 1125.56,1599.09C1118.07,1596.05 1111.73,1591.72 1106.56,1586.05C1101.43,1580.41 1097.45,1573.72 1094.63,1565.97C1091.79,1558.15 1090.4,1549.35 1090.4,1539.6C1090.4,1527.67 1092.23,1515.91 1095.89,1504.3C1099.56,1492.69 1104.89,1482.24 1111.89,1472.93C1118.89,1463.64 1127.46,1456.13 1137.59,1450.39C1147.72,1444.65 1159.26,1441.82 1172.2,1441.82C1183.43,1441.82 1193.31,1443.95 1201.83,1448.32C1209.85,1452.43 1215.98,1459.51 1220.29,1469.49C1221.16,1471.51 1222.9,1472.78 1224.8,1472.78L1225.46,1472.78C1227.81,1472.78 1229.85,1470.86 1230.4,1468.13L1234.78,1446.48C1234.78,1446.48 1269.55,1446.48 1269.55,1446.48C1269.55,1446.48 1236.86,1601.98 1236.86,1601.98L1236.86,1601.98ZM1180.86,1465.28C1171.88,1465.28 1164.04,1467.71 1157.31,1472.44C1150.73,1477.08 1145.25,1482.88 1140.86,1489.83C1136.53,1496.69 1133.21,1504.26 1130.93,1512.56C1128.64,1520.89 1127.51,1528.79 1127.51,1536.27C1127.51,1542.03 1128.21,1547.48 1129.59,1552.61C1131.03,1557.98 1133.32,1562.77 1136.47,1566.96C1139.62,1571.16 1143.55,1574.47 1148.28,1576.83C1152.82,1579.1 1158.24,1580.3 1164.55,1580.3C1173.91,1580.3 1182.08,1577.96 1189.1,1573.4C1196.08,1568.88 1201.81,1563.12 1206.34,1556.14C1210.8,1549.27 1214.18,1541.6 1216.48,1533.16C1218.76,1524.75 1219.89,1516.57 1219.89,1508.64C1219.89,1496.05 1216.59,1485.75 1210.17,1477.66C1203.8,1469.64 1194.1,1465.28 1180.86,1465.28ZM1180.86,1471.36C1192.4,1471.36 1200.94,1474.85 1206.49,1481.84C1212.04,1488.84 1214.81,1497.77 1214.81,1508.64C1214.81,1515.96 1213.76,1523.51 1211.65,1531.28C1209.54,1539.05 1206.43,1546.09 1202.33,1552.42C1198.22,1558.74 1193.01,1563.96 1186.68,1568.06C1180.36,1572.17 1172.98,1574.22 1164.55,1574.22C1159,1574.22 1154.23,1573.22 1150.23,1571.22C1146.24,1569.23 1142.91,1566.45 1140.25,1562.9C1137.58,1559.35 1135.64,1555.3 1134.42,1550.75C1133.2,1546.2 1132.59,1541.38 1132.59,1536.27C1132.59,1529.39 1133.64,1522.12 1135.75,1514.47C1137.86,1506.81 1140.91,1499.82 1144.91,1493.5C1148.9,1487.17 1153.89,1481.9 1159.89,1477.68C1165.88,1473.47 1172.87,1471.36 1180.86,1471.36Z" style="fill:white;"/>
            <path d="M1408.88,1440.4L1373.27,1612.5L1420.2,1612.5L1439.51,1520.29C1440.62,1514.97 1442.39,1509.53 1444.84,1503.98C1447.28,1498.43 1450.33,1493.38 1453.99,1488.84C1457.65,1484.29 1461.98,1480.51 1466.97,1477.52C1471.97,1474.52 1477.57,1473.02 1483.78,1473.02C1489.78,1473.02 1494.71,1474.8 1498.6,1478.35C1502.48,1481.9 1504.42,1486.23 1504.42,1491.33C1504.42,1495.1 1503.98,1499.21 1503.09,1503.65L1480.45,1612.5L1528.06,1612.5L1547.36,1520.29C1548.47,1514.97 1550.25,1509.53 1552.69,1503.98C1555.13,1498.43 1558.18,1493.38 1561.84,1488.84C1565.51,1484.29 1569.83,1480.51 1574.83,1477.52C1579.82,1474.52 1585.42,1473.02 1591.64,1473.02C1597.63,1473.02 1602.57,1474.8 1606.45,1478.35C1610.34,1481.9 1612.28,1486.23 1612.28,1491.33C1612.28,1495.1 1611.83,1499.21 1610.94,1503.65L1588.31,1612.5L1635.58,1612.5L1656.88,1511.31C1657.99,1506.2 1659.1,1500.93 1660.21,1495.49C1661.32,1490.06 1661.88,1484.67 1661.88,1479.35C1661.88,1472.02 1660.43,1465.59 1657.55,1460.04C1654.66,1454.49 1650.78,1449.94 1645.9,1446.39C1641.02,1442.84 1635.41,1440.18 1629.09,1438.4C1622.76,1436.63 1616.27,1435.74 1609.61,1435.74C1604.07,1435.74 1598.46,1436.46 1592.8,1437.9C1587.14,1439.35 1581.76,1441.4 1576.66,1444.06C1571.55,1446.73 1566.78,1449.89 1562.34,1453.55C1557.9,1457.21 1554.24,1461.26 1551.36,1465.7C1549.36,1455.05 1544.59,1447.39 1537.05,1442.73C1529.5,1438.07 1520.4,1435.74 1509.75,1435.74C1497.1,1435.74 1485.67,1438.07 1475.46,1442.73C1465.25,1447.39 1456.6,1454.71 1449.5,1464.7L1448.83,1464.7L1454.16,1440.4L1408.88,1440.4ZM1412.86,1446.48L1447.58,1446.48C1447.58,1446.48 1443.92,1463.16 1443.92,1463.16C1443.52,1464.98 1443.85,1466.92 1444.81,1468.41C1445.77,1469.9 1447.26,1470.78 1448.83,1470.78L1449.5,1470.78C1450.98,1470.78 1452.4,1470 1453.36,1468.64C1459.9,1459.44 1467.87,1452.7 1477.27,1448.41C1486.94,1444 1497.77,1441.82 1509.75,1441.82C1519.49,1441.82 1527.82,1443.87 1534.72,1448.13C1540.91,1451.96 1544.77,1458.29 1546.4,1467.03C1546.84,1469.33 1548.33,1471.12 1550.25,1471.63C1552.17,1472.14 1554.16,1471.29 1555.37,1469.43C1557.95,1465.45 1561.25,1461.84 1565.23,1458.55C1569.4,1455.11 1573.89,1452.14 1578.69,1449.63C1583.48,1447.13 1588.54,1445.2 1593.86,1443.85C1599.16,1442.5 1604.41,1441.82 1609.61,1441.82C1615.88,1441.82 1621.98,1442.65 1627.93,1444.32C1633.69,1445.94 1638.81,1448.35 1643.26,1451.59C1647.44,1454.62 1650.77,1458.51 1653.24,1463.25C1655.64,1467.87 1656.8,1473.25 1656.8,1479.35C1656.8,1484.2 1656.29,1489.1 1655.28,1494.05C1654.18,1499.46 1653.07,1504.7 1651.97,1509.77C1651.97,1509.79 1651.96,1509.8 1651.96,1509.82L1631.62,1606.42C1631.62,1606.42 1594.81,1606.42 1594.81,1606.42C1594.81,1606.42 1615.87,1505.12 1615.87,1505.12C1615.88,1505.1 1615.88,1505.08 1615.88,1505.06C1616.87,1500.12 1617.35,1495.54 1617.35,1491.33C1617.35,1484.36 1614.84,1478.37 1609.53,1473.52C1604.83,1469.22 1598.89,1466.94 1591.64,1466.94C1584.58,1466.94 1578.22,1468.68 1572.55,1472.08C1567.03,1475.4 1562.24,1479.58 1558.19,1484.62C1554.19,1489.58 1550.86,1495.09 1548.2,1501.15C1545.55,1507.16 1543.64,1513.05 1542.44,1518.82C1542.44,1518.82 1524.1,1606.42 1524.1,1606.42C1524.1,1606.42 1486.95,1606.42 1486.95,1606.42C1486.95,1606.42 1508.02,1505.12 1508.02,1505.12C1508.02,1505.1 1508.02,1505.08 1508.03,1505.06C1509.02,1500.12 1509.5,1495.54 1509.5,1491.33C1509.5,1484.36 1506.98,1478.37 1501.68,1473.52C1496.98,1469.22 1491.04,1466.94 1483.78,1466.94C1476.73,1466.94 1470.37,1468.68 1464.7,1472.08C1459.17,1475.4 1454.39,1479.58 1450.33,1484.62C1446.34,1489.58 1443.01,1495.09 1440.34,1501.15C1437.7,1507.16 1435.79,1513.05 1434.58,1518.82C1434.58,1518.82 1416.24,1606.42 1416.24,1606.42C1416.24,1606.42 1379.75,1606.42 1379.75,1606.42L1412.86,1446.48Z" style="fill:white;"/>
            <path d="M1728.45,1537.94L1855.28,1537.94C1857.06,1528.39 1857.95,1519.4 1857.95,1510.97C1857.95,1498.54 1856,1487.61 1852.12,1478.18C1848.24,1468.75 1842.8,1460.87 1835.81,1454.55C1828.82,1448.22 1820.38,1443.51 1810.51,1440.4C1800.63,1437.29 1789.7,1435.74 1777.72,1435.74C1763.07,1435.74 1749.87,1438.68 1738.11,1444.56C1726.35,1450.44 1716.41,1458.32 1708.31,1468.2C1700.21,1478.07 1693.94,1489.39 1689.51,1502.15C1685.07,1514.91 1682.85,1528.17 1682.85,1541.93C1682.85,1554.36 1684.68,1565.23 1688.34,1574.55C1692,1583.87 1697.16,1591.7 1703.82,1598.02C1710.48,1604.35 1718.52,1609.06 1727.95,1612.17C1737.39,1615.28 1747.87,1616.83 1759.41,1616.83C1771.84,1616.83 1782.77,1615.61 1792.2,1613.17C1801.63,1610.73 1809.9,1607.01 1817,1602.02C1824.1,1597.02 1830.2,1590.86 1835.31,1583.54C1840.41,1576.22 1844.85,1567.67 1848.62,1557.91L1801.36,1557.91C1799.58,1560.57 1797.64,1563.35 1795.53,1566.23C1793.42,1569.12 1790.98,1571.67 1788.21,1573.89C1785.43,1576.11 1782.21,1577.94 1778.55,1579.38C1774.89,1580.82 1770.73,1581.54 1766.07,1581.54C1753.2,1581.54 1743.65,1578.44 1737.44,1572.22C1731.23,1566.01 1728.12,1557.91 1728.12,1547.92L1728.12,1540.93C1728.12,1540.04 1728.23,1539.05 1728.45,1537.94ZM1728.45,1531.86C1726.11,1531.86 1724.06,1533.79 1723.52,1536.52C1723.19,1538.15 1723.04,1539.62 1723.04,1540.93L1723.04,1547.92C1723.04,1559.83 1726.78,1569.48 1734.19,1576.89C1741.12,1583.82 1751.7,1587.62 1766.07,1587.62C1771.32,1587.62 1776.01,1586.78 1780.14,1585.15C1784.27,1583.53 1787.9,1581.44 1791.03,1578.94C1794.18,1576.42 1796.95,1573.51 1799.35,1570.23C1800.92,1568.09 1802.39,1566.01 1803.78,1563.99C1803.78,1563.99 1840.35,1563.99 1840.35,1563.99C1837.66,1569.74 1834.68,1574.96 1831.41,1579.65C1826.68,1586.44 1821.02,1592.14 1814.43,1596.78C1807.76,1601.47 1799.99,1604.93 1791.13,1607.23C1782.01,1609.59 1771.43,1610.75 1759.41,1610.75C1748.37,1610.75 1738.33,1609.28 1729.3,1606.31C1720.58,1603.44 1713.13,1599.11 1706.98,1593.26C1700.94,1587.52 1696.26,1580.42 1692.93,1571.97C1689.57,1563.39 1687.93,1553.37 1687.93,1541.93C1687.93,1528.98 1690.02,1516.5 1694.19,1504.49C1698.38,1492.45 1704.3,1481.77 1711.94,1472.45C1719.58,1463.13 1728.96,1455.72 1740.06,1450.17C1751.24,1444.58 1763.8,1441.82 1777.72,1441.82C1789.23,1441.82 1799.73,1443.29 1809.22,1446.28C1818.4,1449.17 1826.25,1453.52 1832.75,1459.4C1839.1,1465.14 1844.04,1472.3 1847.57,1480.87C1851.13,1489.53 1852.87,1499.57 1852.87,1510.97C1852.87,1517.58 1852.29,1524.54 1851.14,1531.86C1851.14,1531.86 1728.45,1531.86 1728.45,1531.86ZM1812.34,1514.05C1815.14,1514.05 1817.42,1511.33 1817.42,1507.98C1817.42,1503.11 1816.99,1498.3 1816.14,1493.55C1815.21,1488.36 1813.41,1483.63 1810.75,1479.37C1808.03,1475.03 1804.14,1471.49 1798.99,1468.91C1794.27,1466.56 1788.08,1465.28 1780.38,1465.28C1773.13,1465.28 1766.73,1466.4 1761.16,1468.58C1755.51,1470.79 1750.59,1473.76 1746.41,1477.45C1742.17,1481.19 1738.62,1485.56 1735.76,1490.55C1733.02,1495.31 1730.7,1500.31 1728.79,1505.55C1728.11,1507.43 1728.26,1509.59 1729.2,1511.31C1730.14,1513.02 1731.74,1514.05 1733.45,1514.05L1812.34,1514.05ZM1812.34,1507.98L1733.45,1507.98C1735.22,1503.09 1737.39,1498.43 1739.94,1494C1742.49,1489.56 1745.65,1485.67 1749.42,1482.34C1753.2,1479.02 1757.64,1476.35 1762.74,1474.35C1767.85,1472.36 1773.73,1471.36 1780.38,1471.36C1787.26,1471.36 1792.81,1472.41 1797.03,1474.52C1801.24,1476.63 1804.46,1479.46 1806.68,1483.01C1808.9,1486.56 1810.4,1490.5 1811.17,1494.83C1811.95,1499.15 1812.34,1503.54 1812.34,1507.98Z" style="fill:white;"/>
            <path d="M1903.22,1440.4L1867.6,1612.5L1914.54,1612.5L1933.84,1520.96C1935.17,1514.97 1937.12,1509.09 1939.67,1503.32C1942.22,1497.55 1945.44,1492.44 1949.32,1488C1953.21,1483.56 1957.87,1479.96 1963.3,1477.18C1968.74,1474.41 1975.01,1473.02 1982.11,1473.02C1987.66,1473.02 1992.82,1474.69 1997.59,1478.02C2002.36,1481.35 2004.75,1485.56 2004.75,1490.67C2004.75,1493.11 2004.36,1496.55 2003.58,1500.99C2002.81,1505.42 2002.2,1508.98 2001.75,1511.64L1980.78,1612.5L2028.05,1612.5L2049.36,1511.64C2049.58,1510.08 2049.97,1508.03 2050.52,1505.48C2051.07,1502.93 2051.63,1500.21 2052.18,1497.32C2052.74,1494.44 2053.24,1491.61 2053.68,1488.84C2054.13,1486.06 2054.35,1483.79 2054.35,1482.01C2054.35,1451.16 2037.59,1435.74 2004.08,1435.74C1979.23,1435.74 1959.14,1445.28 1943.83,1464.37L1943.16,1464.37L1948.49,1440.4L1903.22,1440.4ZM1907.19,1446.48L1941.89,1446.48C1941.89,1446.48 1938.26,1462.81 1938.26,1462.81C1937.85,1464.63 1938.18,1466.58 1939.14,1468.07C1940.1,1469.57 1941.59,1470.45 1943.16,1470.45L1943.83,1470.45C1945.21,1470.45 1946.54,1469.77 1947.49,1468.58C1961.87,1450.66 1980.75,1441.82 2004.08,1441.82C2022.29,1441.82 2035.18,1446.32 2042.47,1456.38C2047.1,1462.77 2049.27,1471.35 2049.27,1482.01C2049.27,1483.49 2049.07,1485.38 2048.7,1487.69C2048.26,1490.39 2047.78,1493.15 2047.24,1495.96C2046.69,1498.79 2046.15,1501.45 2045.61,1503.95C2045.03,1506.59 2044.63,1508.73 2044.38,1510.39C2044.39,1510.37 2024.1,1606.42 2024.1,1606.42C2024.1,1606.42 1987.28,1606.42 1987.28,1606.42C1987.28,1606.42 2006.68,1513.11 2006.68,1513.11C2006.7,1513.01 2006.72,1512.92 2006.73,1512.83C2007.17,1510.18 2007.78,1506.65 2008.55,1502.23C2009.42,1497.26 2009.83,1493.4 2009.83,1490.67C2009.83,1483.54 2006.81,1477.41 2000.15,1472.77C1994.59,1468.89 1988.58,1466.94 1982.11,1466.94C1974.26,1466.94 1967.33,1468.52 1961.31,1471.59C1955.28,1474.67 1950.12,1478.68 1945.82,1483.61C1941.54,1488.5 1937.99,1494.12 1935.18,1500.47C1932.44,1506.66 1930.37,1512.97 1928.94,1519.4C1928.93,1519.42 1928.93,1519.45 1928.92,1519.47L1910.58,1606.42C1910.58,1606.42 1874.09,1606.42 1874.09,1606.42L1907.19,1446.48Z" style="fill:white;"/>
            <path d="M2261.07,1440.4L2271.72,1388.14L2224.45,1388.14L2213.8,1440.4L2183.51,1440.4L2176.18,1472.02L2207.14,1472.02L2187.84,1564.23C2187.17,1567.34 2186.61,1570.28 2186.17,1573.06C2185.73,1575.83 2185.51,1578.33 2185.51,1580.55C2185.28,1587.65 2186.45,1593.42 2189,1597.86C2191.55,1602.29 2194.99,1605.79 2199.32,1608.34C2203.65,1610.89 2208.53,1612.67 2213.97,1613.67C2219.4,1614.67 2224.9,1615.16 2230.44,1615.16C2235.55,1615.16 2240.54,1615 2245.42,1614.67C2250.31,1614.33 2255.19,1613.94 2260.07,1613.5L2268.06,1577.22C2262.51,1577.88 2256.85,1578.22 2251.08,1578.22C2249.31,1578.22 2247.48,1578.16 2245.59,1578.05C2243.7,1577.94 2241.98,1577.44 2240.43,1576.55C2238.88,1575.66 2237.6,1574.39 2236.6,1572.72C2235.6,1571.06 2235.11,1568.67 2235.11,1565.57C2235.11,1564.9 2235.22,1563.85 2235.44,1562.4C2235.66,1560.96 2235.99,1559.35 2236.44,1557.58L2254.08,1472.02L2287.7,1472.02L2295.02,1440.4L2261.07,1440.4ZM2256.14,1438.96C2255.77,1440.77 2256.11,1442.69 2257.08,1444.15C2258.04,1445.62 2259.51,1446.48 2261.07,1446.48L2288.35,1446.48C2288.35,1446.48 2283.84,1465.95 2283.84,1465.95C2283.84,1465.95 2254.08,1465.95 2254.08,1465.95C2251.74,1465.95 2249.71,1467.85 2249.15,1470.57L2231.54,1555.98C2231.05,1557.93 2230.69,1559.71 2230.44,1561.3C2230.14,1563.24 2230.03,1564.67 2230.03,1565.57C2230.03,1570.24 2230.98,1573.76 2232.48,1576.27C2233.98,1578.78 2235.9,1580.7 2238.24,1582.04C2240.38,1583.26 2242.74,1583.97 2245.34,1584.12C2247.31,1584.24 2249.23,1584.29 2251.08,1584.29C2254.54,1584.29 2257.95,1584.18 2261.33,1583.94C2261.33,1583.94 2256.09,1607.76 2256.09,1607.76C2252.43,1608.07 2248.78,1608.35 2245.14,1608.6C2240.35,1608.92 2235.45,1609.09 2230.44,1609.09C2225.16,1609.09 2219.92,1608.61 2214.74,1607.66C2209.85,1606.76 2205.45,1605.18 2201.56,1602.89C2198.05,1600.82 2195.25,1598.01 2193.18,1594.41C2191.18,1590.92 2190.4,1586.35 2190.58,1580.77C2190.58,1580.7 2190.58,1580.62 2190.58,1580.55C2190.58,1578.66 2190.78,1576.55 2191.16,1574.2C2191.58,1571.54 2192.12,1568.72 2192.75,1565.74C2192.76,1565.73 2192.76,1565.72 2192.76,1565.71L2212.07,1473.5C2212.45,1471.69 2212.11,1469.76 2211.14,1468.29C2210.18,1466.81 2208.71,1465.95 2207.14,1465.95L2182.86,1465.95C2182.86,1465.95 2187.37,1446.48 2187.37,1446.48C2187.37,1446.48 2213.8,1446.48 2213.8,1446.48C2216.14,1446.48 2218.18,1444.56 2218.73,1441.84L2228.44,1394.21C2228.44,1394.21 2265.26,1394.21 2265.26,1394.21C2265.26,1394.21 2256.14,1438.96 2256.14,1438.96Z" style="fill:white;"/>
            <path d="M2341.3,1537.94L2468.12,1537.94C2469.9,1528.39 2470.79,1519.4 2470.79,1510.97C2470.79,1498.54 2468.85,1487.61 2464.96,1478.18C2461.08,1468.75 2455.64,1460.87 2448.65,1454.55C2441.66,1448.22 2433.23,1443.51 2423.35,1440.4C2413.47,1437.29 2402.55,1435.74 2390.56,1435.74C2375.91,1435.74 2362.71,1438.68 2350.95,1444.56C2339.19,1450.44 2329.26,1458.32 2321.16,1468.2C2313.05,1478.07 2306.79,1489.39 2302.35,1502.15C2297.91,1514.91 2295.69,1528.17 2295.69,1541.93C2295.69,1554.36 2297.52,1565.23 2301.18,1574.55C2304.84,1583.87 2310,1591.7 2316.66,1598.02C2323.32,1604.35 2331.36,1609.06 2340.8,1612.17C2350.23,1615.28 2360.71,1616.83 2372.25,1616.83C2384.68,1616.83 2395.61,1615.61 2405.04,1613.17C2414.47,1610.73 2422.74,1607.01 2429.84,1602.02C2436.94,1597.02 2443.05,1590.86 2448.15,1583.54C2453.26,1576.22 2457.69,1567.67 2461.47,1557.91L2414.2,1557.91C2412.42,1560.57 2410.48,1563.35 2408.37,1566.23C2406.26,1569.12 2403.82,1571.67 2401.05,1573.89C2398.27,1576.11 2395.06,1577.94 2391.39,1579.38C2387.73,1580.82 2383.57,1581.54 2378.91,1581.54C2366.04,1581.54 2356.5,1578.44 2350.28,1572.22C2344.07,1566.01 2340.96,1557.91 2340.96,1547.92L2340.96,1540.93C2340.96,1540.04 2341.07,1539.05 2341.3,1537.94ZM2341.3,1531.86C2338.95,1531.86 2336.9,1533.79 2336.36,1536.52C2336.03,1538.15 2335.89,1539.62 2335.89,1540.93L2335.89,1547.92C2335.89,1559.83 2339.62,1569.48 2347.03,1576.89C2353.97,1583.82 2364.54,1587.62 2378.91,1587.62C2384.16,1587.62 2388.85,1586.78 2392.98,1585.15C2397.11,1583.53 2400.74,1581.44 2403.87,1578.94C2407.02,1576.42 2409.8,1573.51 2412.19,1570.23C2413.76,1568.09 2415.23,1566.01 2416.62,1563.99C2416.62,1563.99 2453.19,1563.99 2453.19,1563.99C2450.5,1569.74 2447.52,1574.96 2444.25,1579.65C2439.52,1586.44 2433.86,1592.14 2427.27,1596.78C2420.6,1601.47 2412.83,1604.93 2403.97,1607.23C2394.85,1609.59 2384.27,1610.75 2372.25,1610.75C2361.21,1610.75 2351.17,1609.28 2342.14,1606.31C2333.42,1603.44 2325.97,1599.11 2319.82,1593.26C2313.78,1587.52 2309.1,1580.42 2305.78,1571.97C2302.41,1563.39 2300.77,1553.37 2300.77,1541.93C2300.77,1528.98 2302.86,1516.5 2307.03,1504.49C2311.22,1492.45 2317.14,1481.77 2324.78,1472.45C2332.42,1463.13 2341.81,1455.72 2352.91,1450.17C2364.09,1444.58 2376.64,1441.82 2390.56,1441.82C2402.07,1441.82 2412.57,1443.29 2422.06,1446.28C2431.24,1449.17 2439.09,1453.52 2445.59,1459.4C2451.94,1465.14 2456.88,1472.3 2460.41,1480.87C2463.97,1489.53 2465.71,1499.57 2465.71,1510.97C2465.71,1517.58 2465.13,1524.54 2463.98,1531.86C2463.98,1531.86 2341.3,1531.86 2341.3,1531.86ZM2425.18,1514.05C2427.99,1514.05 2430.26,1511.33 2430.26,1507.98C2430.26,1503.11 2429.83,1498.3 2428.98,1493.55C2428.05,1488.36 2426.25,1483.63 2423.59,1479.37C2420.87,1475.03 2416.98,1471.49 2411.83,1468.91C2407.11,1466.56 2400.92,1465.28 2393.22,1465.28C2385.97,1465.28 2379.57,1466.4 2374.01,1468.58C2368.35,1470.79 2363.44,1473.76 2359.25,1477.45C2355.01,1481.19 2351.47,1485.56 2348.6,1490.55C2345.86,1495.31 2343.54,1500.31 2341.63,1505.55C2340.95,1507.43 2341.1,1509.59 2342.04,1511.31C2342.98,1513.02 2344.58,1514.05 2346.29,1514.05L2425.18,1514.05ZM2425.18,1507.98L2346.29,1507.98C2348.06,1503.09 2350.23,1498.43 2352.78,1494C2355.33,1489.56 2358.49,1485.67 2362.27,1482.34C2366.04,1479.02 2370.48,1476.35 2375.58,1474.35C2380.69,1472.36 2386.57,1471.36 2393.22,1471.36C2400.11,1471.36 2405.65,1472.41 2409.87,1474.52C2414.09,1476.63 2417.3,1479.46 2419.52,1483.01C2421.74,1486.56 2423.24,1490.5 2424.02,1494.83C2424.79,1499.15 2425.18,1503.54 2425.18,1507.98Z" style="fill:white;"/>
            <path d="M2605.27,1591.2L2600.61,1612.5L2646.22,1612.5L2696.48,1374.82L2649.21,1374.82L2630.24,1463.37L2629.57,1463.37C2625.8,1453.83 2619.31,1446.84 2610.1,1442.4C2600.89,1437.96 2591.29,1435.74 2581.3,1435.74C2565.33,1435.74 2551.46,1439.01 2539.69,1445.56C2527.93,1452.11 2518.17,1460.71 2510.4,1471.36C2502.63,1482.01 2496.86,1494.11 2493.09,1507.64C2489.32,1521.18 2487.43,1535.05 2487.43,1549.25C2487.43,1570.11 2493.15,1586.59 2504.58,1598.69C2516,1610.78 2532.15,1616.83 2553.01,1616.83C2563.66,1616.83 2573.59,1614.78 2582.8,1610.67C2592.01,1606.57 2599.28,1599.85 2604.61,1590.53L2605.27,1591.2ZM2610.18,1592.74C2610.68,1590.46 2610.04,1588.04 2608.53,1586.53L2607.86,1585.87C2606.76,1584.77 2605.33,1584.28 2603.91,1584.51C2602.49,1584.75 2601.22,1585.69 2600.42,1587.1C2595.68,1595.38 2589.21,1601.33 2581.03,1604.98C2572.37,1608.84 2563.03,1610.75 2553.01,1610.75C2533.62,1610.75 2518.56,1605.37 2507.94,1594.13C2497.58,1583.17 2492.51,1568.17 2492.51,1549.25C2492.51,1535.71 2494.31,1522.48 2497.91,1509.57C2501.46,1496.8 2506.9,1485.4 2514.23,1475.36C2521.54,1465.32 2530.75,1457.24 2541.84,1451.07C2552.99,1444.86 2566.15,1441.82 2581.3,1441.82C2590.63,1441.82 2599.6,1443.89 2608.2,1448.04C2616.11,1451.85 2621.74,1457.77 2624.98,1465.97C2625.82,1468.09 2627.61,1469.45 2629.57,1469.45L2630.24,1469.45C2632.56,1469.45 2634.58,1467.57 2635.16,1464.88L2653.15,1380.9C2653.15,1380.9 2689.96,1380.9 2689.96,1380.9C2689.96,1380.9 2642.27,1606.42 2642.27,1606.42C2642.27,1606.42 2607.19,1606.42 2607.19,1606.42C2607.19,1606.42 2610.18,1592.74 2610.18,1592.74ZM2586.3,1465.28C2576.42,1465.28 2567.85,1467.94 2560.57,1473.12C2553.39,1478.23 2547.5,1484.69 2542.88,1492.47C2538.33,1500.14 2534.97,1508.53 2532.81,1517.64C2530.68,1526.65 2529.62,1535.19 2529.62,1543.26C2529.62,1549.1 2530.45,1554.69 2532.1,1560.02C2533.8,1565.49 2536.28,1570.24 2539.54,1574.28C2542.76,1578.28 2546.81,1581.54 2551.72,1583.99C2556.5,1586.38 2562.03,1587.62 2568.32,1587.62C2578.24,1587.62 2586.78,1584.88 2593.97,1579.55C2600.99,1574.35 2606.86,1567.75 2611.58,1559.75C2616.23,1551.88 2619.69,1543.35 2621.96,1534.16C2624.22,1525 2625.33,1516.49 2625.33,1508.64C2625.33,1495.52 2621.99,1485.1 2615.55,1477.26C2609.2,1469.5 2599.51,1465.28 2586.3,1465.28ZM2586.3,1471.36C2597.84,1471.36 2606.38,1474.74 2611.93,1481.51C2617.48,1488.28 2620.25,1497.32 2620.25,1508.64C2620.25,1515.96 2619.2,1523.9 2617.09,1532.44C2614.98,1540.99 2611.76,1548.92 2607.44,1556.24C2603.11,1563.57 2597.73,1569.62 2591.29,1574.39C2584.86,1579.16 2577.2,1581.54 2568.32,1581.54C2562.77,1581.54 2557.89,1580.49 2553.68,1578.38C2549.46,1576.27 2545.96,1573.5 2543.19,1570.06C2540.42,1566.62 2538.31,1562.57 2536.87,1557.91C2535.42,1553.25 2534.7,1548.37 2534.7,1543.26C2534.7,1535.72 2535.7,1527.73 2537.7,1519.29C2539.69,1510.86 2542.8,1503.09 2547.02,1495.99C2551.23,1488.89 2556.62,1483.01 2563.16,1478.35C2569.71,1473.69 2577.42,1471.36 2586.3,1471.36Z" style="fill:white;"/>
        </g>
    </g>
</svg>
